<?xml version="1.0" encoding="utf-8"?>
<svg viewBox="20 20 140 140" style="enable-background:new 20 20 140 140;" xmlns="http://www.w3.org/2000/svg">
  <defs>
    <style type="text/css">
	.st0{fill:#13294B;}
	.st1{fill:#FF5F05;}
</style>
  </defs>
  <g id="g-3" transform="matrix(0.9999999999999999, 0, 0, 0.9999999999999999, 24.70265769958496, 21.507232666015625)"/>
  <g id="Minnesota_Primary_00000053508507111225760580000002444229707914116266_" transform="matrix(0.9999999999999999, 0, 0, 0.9999999999999999, 4.963942050933838, 10.60573959350586)">
    <path class="st0" d="M151.9,111.2c0.4,0.2,0.7,0.4,1,0.7c0.3,0.3,0.5,0.6,0.7,0.9c0.2,0.4,0.3,0.9,0.3,1.4c0,0.6-0.1,1.1-0.4,1.6 c-0.3,0.5-0.7,0.9-1.2,1.2c-0.5,0.3-1.1,0.4-1.6,0.4c-0.6,0-1.1-0.1-1.6-0.4c-0.5-0.3-0.9-0.7-1.2-1.2c-0.3-0.5-0.4-1.1-0.4-1.6 c0-0.5,0.1-0.9,0.3-1.3c0.2-0.4,0.4-0.7,0.7-1c0.3-0.3,0.6-0.5,0.9-0.6c0.4-0.2,0.9-0.3,1.3-0.3C151.1,111,151.5,111.1,151.9,111.2 z M154.2,112.7c-0.2-0.4-0.4-0.8-0.7-1.1c-0.3-0.3-0.7-0.6-1.2-0.8c-0.5-0.2-1-0.3-1.6-0.3c-0.6,0-1.1,0.1-1.7,0.4 c-0.4,0.2-0.7,0.4-1.1,0.8c-0.3,0.3-0.6,0.7-0.8,1.2c-0.2,0.5-0.3,1-0.3,1.5c0,0.7,0.2,1.3,0.5,1.9c0.3,0.6,0.8,1.1,1.4,1.4 c0.6,0.3,1.2,0.5,1.9,0.5c0.6,0,1.2-0.1,1.7-0.4c0.4-0.2,0.8-0.5,1.1-0.8c0.3-0.3,0.6-0.7,0.8-1.2c0.2-0.5,0.3-0.9,0.3-1.4 C154.5,113.7,154.4,113.2,154.2,112.7z M150.5,114.8c0.2,0,0.4,0,0.6,0.1c0.1,0.1,0.2,0.2,0.3,0.3c0.1,0.1,0.1,0.3,0.1,0.6 c0,0.4,0,0.6,0.1,0.6h0.9c0-0.1-0.1-0.3-0.1-0.6c0-0.3,0-0.4,0-0.5c0-0.2-0.1-0.3-0.2-0.4c-0.1-0.1-0.2-0.2-0.3-0.3 c-0.1-0.1-0.3-0.1-0.5-0.2c0.2,0,0.4-0.1,0.5-0.1c0.2-0.1,0.3-0.2,0.4-0.4c0.1-0.2,0.2-0.4,0.2-0.6c0-0.2,0-0.4-0.1-0.6 c-0.1-0.2-0.2-0.3-0.4-0.4c-0.2-0.1-0.4-0.2-0.6-0.2c-0.2,0-0.4,0-0.8,0H149v4.3h1v-1.6H150.5z M151,112.9c0.1,0,0.3,0.1,0.3,0.2 c0.1,0.1,0.1,0.2,0.1,0.4c0,0.1,0,0.3-0.1,0.4c-0.1,0.1-0.2,0.2-0.3,0.2c-0.1,0.1-0.3,0.1-0.4,0.1H150v-1.4h0.6 C150.7,112.8,150.9,112.8,151,112.9z" style="fill: rgb(95, 15, 47);"/>
    <polygon class="st0" points="136,98.7 113.6,61.3 119.7,61.3 119.7,41.9 82.3,41.9 82.3,61.3 88.5,61.3 79.9,75.6 71.4,61.3 &#10;&#9;&#9;77.6,61.3 77.6,41.9 40.1,41.9 40.1,61.3 46.3,61.3 23.9,98.7 15.9,98.7 15.9,118.1 54,118.1 54,98.7 47.1,98.7 58.9,79.2 &#10;&#9;&#9;63.4,86.8 59,86.8 59,106.2 100.9,106.2 100.9,86.8 96.5,86.8 101,79.2 112.7,98.7 105.9,98.7 105.9,118.1 144,118.1 144,98.7 &#9;" style="fill: rgb(95, 15, 47);"/>
    <path class="st1" d="M117.2,44.4c0,3.2,0,11.2,0,14.5c-1.8,0-8.1,0-8.1,0l25.5,42.3c0,0,4.6,0,6.9,0c0,3.2,0,11.2,0,14.5 c-4.1,0-29.1,0-33.2,0c0-3.2,0-11.2,0-14.5c2,0,8.8,0,8.8,0L101,74.4l-9,14.9c0,0,5.4,0,6.3,0c0,3.2,0,11.2,0,14.5 c-4.1,0-32.7,0-36.8,0c0-3.2,0-11.2,0-14.5c0.9,0,6.3,0,6.3,0l-9-14.9l-16.1,26.8c0,0,6.8,0,8.8,0c0,3.2,0,11.2,0,14.5 c-4.1,0-29.1,0-33.2,0c0-3.2,0-11.2,0-14.5c2.4,0,6.9,0,6.9,0l25.5-42.3c0,0-6.3,0-8.1,0c0-3.2,0-11.2,0-14.5c4,0,28.4,0,32.4,0 c0,3.2,0,11.2,0,14.5c-1.8,0-8.1,0-8.1,0l13,21.6l13-21.6c0,0-6.3,0-8.1,0c0-3.2,0-11.2,0-14.5C88.9,44.4,113.2,44.4,117.2,44.4z" style="fill: rgb(250, 190, 32);"/>
    <path class="st0" d="M114.8,46.8c0,2.7,0,6.8,0,9.5c-2.4,0-10,0-10,0l28.5,47.3c0,0,3.8,0,5.8,0c0,2.7,0,6.8,0,9.5 c-3.9,0-24.2,0-28.2,0c0-2.7,0-6.8,0-9.5c2.6,0,10.7,0,10.7,0L101,69.5L87.7,91.8c0,0,6.4,0,8.2,0c0,2.7,0,6.8,0,9.5 c-4,0-27.8,0-31.8,0c0-2.7,0-6.8,0-9.5c1.8,0,8.2,0,8.2,0L58.8,69.5l-20.5,34.1c0,0,8.1,0,10.7,0c0,2.7,0,6.8,0,9.5 c-3.9,0-24.2,0-28.2,0c0-2.7,0-6.8,0-9.5c2,0,5.8,0,5.8,0l28.5-47.3c0,0-7.6,0-10,0c0-2.7,0-6.8,0-9.5c3.9,0,23.5,0,27.4,0 c0,2.7,0,6.8,0,9.5c-2.4,0-10,0-10,0l17.4,28.9l17.4-28.9c0,0-7.6,0-10,0c0-2.7,0-6.8,0-9.5C91.2,46.8,110.9,46.8,114.8,46.8z" style="fill: rgb(95, 15, 47);"/>
  </g>
</svg>