<?xml version="1.0" encoding="UTF-8"?>
<svg width="65px" height="61px" viewBox="0 0 65 61" version="1.1" xmlns="http://www.w3.org/2000/svg" xmlns:xlink="http://www.w3.org/1999/xlink">
    <title>Group</title>
    <g id="Page-1" stroke="none" stroke-width="1" fill="none" fill-rule="evenodd">
        <g id="Big-Ten-Logo-Sheet-DIGITAL-6.25.25" transform="translate(-523, -279)">
            <g id="Group" transform="translate(522.9981, 279.1901)">
                <path d="M63.403,60.2906 C62.703,60.2906 62.124,59.7156 62.124,59.0206 C62.124,58.3046 62.692,57.7386 63.416,57.7386 C64.109,57.7386 64.677,58.3236 64.677,59.0156 C64.677,59.7206 64.103,60.2906 63.403,60.2906 M63.421,57.4196 C62.52,57.4196 61.805,58.1236 61.805,59.0166 C61.805,59.8916 62.526,60.6096 63.403,60.6096 C64.28,60.6096 64.995,59.8966 64.995,59.0166 C64.995,58.1436 64.285,57.4196 63.421,57.4196" id="Fill-709" fill="#D00000"></path>
                <path d="M63.2532,58.8958 C63.2532,58.8958 63.3592,58.8958 63.4012,58.8868 C63.5502,58.8548 63.6382,58.7468 63.6382,58.5858 C63.6382,58.4598 63.5832,58.3758 63.4772,58.3448 C63.4342,58.3308 63.4202,58.3308 63.2392,58.3308 L63.0812,58.3308 L63.0812,58.8958 L63.2532,58.8958 Z M62.7622,58.0578 L63.3252,58.0578 C63.5572,58.0578 63.6522,58.0718 63.7492,58.1178 C63.9082,58.1958 64.0022,58.3648 64.0022,58.5688 C64.0022,58.7118 63.9542,58.8468 63.8642,58.9478 C63.8072,59.0108 63.7582,59.0448 63.6432,59.0998 L63.6022,59.1188 L64.0392,59.9718 L63.7202,59.9718 L63.3022,59.1568 L63.0812,59.1568 L63.0812,59.9718 L62.7622,59.9718 L62.7622,58.0578 Z" id="Fill-711" fill="#D00000"></path>
                <path d="M59.812,1.994 L59.812,15.95 L59.812,17.146 L58.616,17.146 L55.825,17.146 L55.825,43.464 L58.616,43.464 L59.812,43.464 L59.812,44.66 L59.812,58.616 L59.812,59.812 L58.616,59.812 L40.274,59.812 L39.616,59.812 L39.263,59.257 L20.735,30.04 L20.735,43.464 L23.526,43.464 L24.722,43.464 L24.722,44.66 L24.722,58.616 L24.722,59.812 L23.526,59.812 L1.994,59.812 L0.798,59.812 L0.798,58.616 L0.798,44.66 L0.798,43.464 L1.994,43.464 L4.785,43.464 L4.785,17.146 L1.994,17.146 L0.798,17.146 L0.798,15.95 L0.798,1.994 L0.798,0.798 L1.994,0.798 L20.335,0.798 L20.993,0.798 L21.346,1.353 L39.875,30.573 L39.875,17.146 L37.083,17.146 L35.887,17.146 L35.887,15.95 L35.887,1.994 L35.887,0.798 L37.083,0.798 L58.616,0.798 L59.812,0.798 L59.812,1.994 Z M58.616,0 L37.083,0 L35.09,0 L35.09,1.994 L35.09,15.95 L35.09,17.944 L37.083,17.944 L39.077,17.944 L39.077,27.826 L22.019,0.926 L21.432,0 L20.335,0 L1.994,0 L0,0 L0,1.994 L0,15.95 L0,17.944 L1.994,17.944 L3.988,17.944 L3.988,42.667 L1.994,42.667 L0,42.667 L0,44.66 L0,58.616 L0,60.61 L1.994,60.61 L23.526,60.61 L25.52,60.61 L25.52,58.616 L25.52,44.66 L25.52,42.667 L23.526,42.667 L21.532,42.667 L21.532,32.787 L38.59,59.684 L39.177,60.61 L40.274,60.61 L58.616,60.61 L60.609,60.61 L60.609,58.616 L60.609,44.66 L60.609,42.667 L58.616,42.667 L56.622,42.667 L56.622,17.944 L58.616,17.944 L60.609,17.944 L60.609,15.95 L60.609,1.994 L60.609,0 L58.616,0 Z" id="Fill-713" fill="#D00000"></path>
                <path d="M23.5262,44.6603 L23.5262,44.6603 L23.5262,58.6163 L1.9942,58.6163 L1.9942,44.6603 L1.9942,44.6603 L5.9812,44.6603 L5.9812,15.9503 L1.9942,15.9503 L1.9942,1.9943 L20.3352,1.9943 L41.0712,34.6933 L41.0712,15.9503 L37.0832,15.9503 L37.0832,1.9943 L58.6162,1.9943 L58.6162,15.9503 L54.6282,15.9503 L54.6282,44.6603 L58.6162,44.6603 L58.6162,44.6603 L58.6162,58.6163 L40.2732,58.6163 L19.5392,25.9203 L19.5392,44.6603 L23.5262,44.6603 Z M58.6162,0.7973 L37.0832,0.7973 L35.8872,0.7973 L35.8872,1.9943 L35.8872,15.9503 L35.8872,17.1463 L37.0832,17.1463 L39.8752,17.1463 L39.8752,30.5733 L21.3462,1.3533 L20.9932,0.7973 L20.3352,0.7973 L1.9942,0.7973 L0.7972,0.7973 L0.7972,1.9943 L0.7972,15.9503 L0.7972,17.1463 L1.9942,17.1463 L4.7852,17.1463 L4.7852,43.4643 L1.9942,43.4643 L0.7972,43.4643 L0.7972,44.6603 L0.7972,58.6163 L0.7972,59.8123 L1.9942,59.8123 L23.5262,59.8123 L24.7222,59.8123 L24.7222,58.6163 L24.7222,44.6603 L24.7222,43.4643 L23.5262,43.4643 L20.7352,43.4643 L20.7352,30.0403 L39.2632,59.2563 L39.6162,59.8123 L40.2732,59.8123 L58.6162,59.8123 L59.8122,59.8123 L59.8122,58.6163 L59.8122,44.6603 L59.8122,43.4643 L58.6162,43.4643 L55.8242,43.4643 L55.8242,17.1463 L58.6162,17.1463 L59.8122,17.1463 L59.8122,15.9503 L59.8122,1.9943 L59.8122,0.7973 L58.6162,0.7973 Z" id="Fill-715" fill="#FFFFFF"></path>
                <polygon id="Fill-717" fill="#D00000" points="41.071 34.6932 41.071 34.6932 20.336 1.9942 1.994 1.9942 1.994 15.9502 5.981 15.9502 5.981 44.6602 5.981 44.6602 1.994 44.6602 1.994 58.6162 23.526 58.6162 23.526 44.6602 19.539 44.6602 19.539 44.6602 19.539 25.9202 40.274 58.6162 58.616 58.6162 58.616 44.6602 54.628 44.6602 54.628 44.6602 54.628 15.9502 58.616 15.9502 58.616 1.9942 37.084 1.9942 37.084 15.9502 41.071 15.9502"></polygon>
            </g>
        </g>
    </g>
</svg>