<?xml version="1.0" encoding="UTF-8"?>
<svg width="44px" height="71px" viewBox="0 0 44 71" version="1.1" xmlns="http://www.w3.org/2000/svg" xmlns:xlink="http://www.w3.org/1999/xlink">
    <title>Group</title>
    <g id="Page-1" stroke="none" stroke-width="1" fill="none" fill-rule="evenodd">
        <g id="Big-Ten-Logo-Sheet-DIGITAL-6.25.25" transform="translate(-774, -274)" fill="#582C83">
            <g id="Group" transform="translate(774.2774, 274.853)">
                <polygon id="Fill-666" points="28.102 0 28.102 9.229 38.391 26.515 38.391 46.976 10.725 0 0 0 0 69.284 15.549 69.284 15.549 60.055 5.26 42.77 5.26 22.308 32.925 69.284 43.651 69.284 43.651 0"></polygon>
                <path d="M18.367,68.9187 C17.627,68.9187 17.027,68.3187 17.027,67.5787 C17.027,66.8397 17.627,66.2397 18.367,66.2397 C19.107,66.2397 19.707,66.8397 19.707,67.5787 C19.707,68.3187 19.107,68.9187 18.367,68.9187 M18.367,65.8737 C17.425,65.8737 16.662,66.6377 16.662,67.5787 C16.662,68.5207 17.425,69.2837 18.367,69.2837 C19.309,69.2837 20.072,68.5207 20.072,67.5787 C20.072,66.6377 19.309,65.8737 18.367,65.8737" id="Fill-667"></path>
                <path d="M18.489,67.396 L18.032,67.396 L18.032,66.971 L18.489,66.971 C18.606,66.971 18.702,67.066 18.702,67.183 C18.702,67.301 18.606,67.396 18.489,67.396 M19.067,67.183 C19.067,66.864 18.808,66.606 18.489,66.606 L17.667,66.605 L17.667,68.553 L18.032,68.553 L18.032,67.762 L18.295,67.762 L18.664,68.553 L19.068,68.553 L18.683,67.729 C18.907,67.649 19.067,67.435 19.067,67.183" id="Fill-669"></path>
            </g>
        </g>
    </g>
</svg>