<?xml version="1.0" encoding="UTF-8"?>
<svg id="USC" xmlns="http://www.w3.org/2000/svg" viewBox="0 0 187.39 293.05">
  <defs>
    <style>
      .cls-1 {
        fill: #fc0;
      }

      .cls-2 {
        fill: #9d1b1e;
      }
    </style>
  </defs>
  <g id="Primary-2">
    <path class="cls-1" d="M139.43,152.59v-33.53h18.33l25.2,26.34v33.2h-34.69v-26.01h-8.84Zm-4.42,11.82l-25.2,26.33h-18.33v-33.53h8.85v-42.77H29.63L4.43,88.1V30.94L29.63,4.6H109.82l25.2,26.34v33.2h-34.68v-26.01H39.13v42.78H109.83l25.2,26.34v57.16h-.02Zm-47.95-11.82v102.31h61.22v-26.01h34.69v33.2l-25.2,26.33H77.58l-25.2-26.34v-116.69h0l25.2-26.33h18.33v33.53h-8.85Zm-39.1,38.15H29.63l-25.2-26.34v-33.2H39.12v26.01h8.85v33.53h-.01Zm139.43-7.52v-39.73l-27.78-29.05h-20.17v-9.1l-27.79-29.04H43.54V42.77h52.37v26.01h43.53V29.04L111.65,0H27.8L0,29.04v60.99l27.78,29.04h43.53l-23.36,24.42v9.11h-4.43v-26.01H0v39.73l27.79,29.05h20.17v68.64l27.78,29.04h83.85l27.79-29.04v-39.74h-43.53v26h-52.37v-54.91h20.16l27.79-29.04v-9.11h4.42v26.01h43.54Z"/>
    <polygon class="cls-2" points="148.28 178.6 182.96 178.6 182.96 145.4 157.77 119.06 139.44 119.06 139.44 152.59 148.28 152.59 148.28 178.6"/>
    <polygon class="cls-2" points="39.11 80.91 39.11 38.13 100.33 38.13 100.33 64.14 135.01 64.14 135.01 30.95 109.81 4.61 29.63 4.61 4.43 30.94 4.43 88.1 29.62 114.44 100.33 114.44 100.33 157.21 91.48 157.21 91.48 190.74 109.81 190.74 135.01 164.4 135.01 107.25 109.81 80.91 39.11 80.91"/>
    <polygon class="cls-2" points="39.11 131.2 4.43 131.2 4.43 164.4 29.62 190.74 47.96 190.74 47.96 157.21 39.11 157.21 39.11 131.2"/>
    <polygon class="cls-2" points="95.91 119.06 77.58 119.06 52.37 145.39 52.37 145.39 52.37 262.09 77.57 288.42 157.76 288.42 182.96 262.09 182.96 228.89 148.28 228.89 148.28 254.9 87.06 254.9 87.06 152.59 95.91 152.59 95.91 119.06"/>
  </g>
</svg>