<?xml version="1.0" encoding="UTF-8"?>
<svg id="WAS" xmlns="http://www.w3.org/2000/svg" viewBox="0 0 311.14 214.3">
  <defs>
    <style>
      .cls-1 {
        fill: #e8d3a2;
      }

      .cls-2 {
        fill: #33006f;
      }
    </style>
  </defs>
  <g id="Primary">
    <g id="Washington_Primary" data-name="Washington Primary">
      <path class="cls-1" d="M216.94,0V51.39h22.85c-3,11.16-10.62,39.5-17.71,65.9C212.98,80.66,192.94,0,192.94,0h-48.45s-21.67,80.68-31.5,117.25c-6.55-26.5-13.57-54.86-16.3-65.86h24.09V0H0V51.39H25.03c2.73,10.92,40.72,162.91,40.72,162.91h68.54s12.93-49.14,20.79-79.02c7.48,29.9,19.77,79.02,19.77,79.02h68.53s40.03-152.14,42.85-162.91h24.91V0h-94.2Zm86.44,43.61h-23.12s-42.35,161-42.86,162.93h-56.49c-.48-1.94-25.63-102.52-25.63-102.52,0,0-26.47,100.61-26.97,102.52h-56.5c-.49-1.95-40.73-162.93-40.73-162.93H7.76V7.76H113.01V43.61h-26.24l25.91,104.71S149.93,9.67,150.44,7.76h36.41c.49,1.95,34.91,140.56,34.91,140.56l28.13-104.7h-25.2V7.77h78.67V43.62h.02Z"/>
      <path class="cls-2" d="M224.71,7.77V43.62h25.2l-28.13,104.69S187.35,9.71,186.86,7.76h-36.41c-.51,1.91-37.76,140.56-37.76,140.56l-25.91-104.7h26.24V7.77H7.77V43.62H31.09s40.24,160.97,40.73,162.92h56.5c.49-1.91,26.96-102.52,26.96-102.52,0,0,25.15,100.58,25.63,102.52h56.5c.5-1.93,42.85-162.92,42.85-162.92h23.13V7.77h-78.68Z"/>
      <path class="cls-2" d="M261.7,203.15c1.08,0,2.04,.08,2.04,1.22,0,1.22-1.67,1.02-2.89,1.02h-1.39v-2.24h2.24Zm.93,3.55c1.2-.04,2.4-.69,2.4-2.47,0-1.9-1.47-2.39-3.1-2.39h-3.79v9.01h1.3v-4.16h1.67l2.31,4.16h1.48l-2.28-4.16h.01Zm-1.39,7.61c4.49,0,8.03-3.54,8.03-8.01s-3.55-8.01-8.03-8.01-8.03,3.54-8.03,8.01,3.55,8.01,8.03,8.01m0-14.72c3.67,0,6.73,2.92,6.73,6.71s-3.06,6.7-6.73,6.7-6.72-2.93-6.72-6.7,3.06-6.71,6.72-6.71"/>
    </g>
  </g>
</svg>