<?xml version="1.0" encoding="utf-8"?>
<svg viewBox="20 20 140 140" style="enable-background:new 20 20 140 140;" xmlns="http://www.w3.org/2000/svg">
  <defs>
    <style type="text/css">
	.st0{fill:#13294B;}
	.st1{fill:#FF5F05;}
</style>
  </defs>
  <g id="g-3" transform="matrix(0.9999999999999999, 0, 0, 0.9999999999999999, 24.70265769958496, 21.507232666015625)"/>
  <g id="g-5" transform="matrix(0.9999999999999999, 0, 0, 0.9999999999999999, 22.567710876464844, 24.59016227722168)"/>
  <g id="g-6" transform="matrix(0.9999999999999999, 0, 0, 0.9999999999999999, 33.770503997802734, 22.950822830200195)"/>
  <g id="g-7" transform="matrix(0.9999999999999999, 0, 0, 0.9999999999999999, 21.80329132080078, 24.262292861938477)"/>
  <g id="g-8" transform="matrix(0.9999999999999999, 0, 0, 0.9999999999999999, 20.980606079101562, 31.300701141357422)"/>
  <g id="g-10" transform="matrix(0.9999999999999999, 0, 0, 0.9999999999999999, 22.37459373474121, 25.42377471923828)"/>
  <g id="g-11" transform="matrix(0.9999999999999999, 0, 0, 0.9999999999999999, 21.981151580810547, 23.03253936767578)"/>
  <g id="Wisconsin_Outlined_00000024709977719661119320000004452830517608988081_" transform="matrix(1.252959966659546, 0, 0, 1.252959966659546, -10.496461868286133, -10.297350883483885)" style="">
    <path class="st0" d="M29.1,51.9l-4.4,41l5.3-3.1c1-0.6,2.7-0.6,3.4,1.1l15.4,44.1c0,0,7.9-19.6,27.2-23.6 c18.9-3.9,34.6,2.2,34.6,2.2l15.9-50c0.4-1.2,1.5-2,2.7-2h2.4l4-36.6C85.7,20.8,48.3,33.2,29.1,51.9z M127,55.8 c0,0-1.5-0.1-2.7,0.7c-1.6,1.1-2.3,4.4-2.3,4.4l-13.8,44.2c0,0-0.6-0.2-1.6-0.5l-0.9,2.8l-0.4-0.1c-0.1,0-6.2-1.7-12.5-1.9 c-0.9,0-1.8-0.1-2.7-0.1c-5.5,0-8.4,0.6-8.4,0.6l-0.5,0.1l-3.5-14.8l-2.6,13c-0.8,0.2-1.6,0.3-2.3,0.5l-0.5,2.5l-0.3,0.1 c-10.4,3.1-16.8,7.7-21.8,15.8l-0.5,0.9L36.6,85.7c-0.4-1.4-0.8-2-1.8-2.3c-0.2-0.1-0.5-0.1-0.7-0.1c-1.4,0-2.9,0.9-2.9,0.9 l-0.8,0.5l2.9-26.6l0.1-0.1c0,0,1.2-1.2,3.2-2.8l0.2-2.2c0,0,4.6-4.1,11.2-7.9c6.2-3.6,13.6-6.3,15.9-7.1L61,65.1 c-0.5,0.3-1.1,0.9-1.6,2c-0.6,1.2-0.6,3.6-0.2,5.1l2.5,11.4l3.5-14.4c0.4-1.6,0.6-2.5,0-3.5c-0.6-0.9-1.3-0.8-1.4-0.8L63.1,65 l0.1-0.6L66,40l0.3-0.1c0,0,1.1-0.4,2.9-1l0.3-2.4c0,0,5.4-1.5,11.7-2.8c5.8-1.2,11.3-1.8,13-2l-2.7,26c-0.4,0.2-1.1,0.6-1.6,1.5 c-0.6,1.3-0.6,3.5-0.3,5l2.5,11.6l3.7-13.8c0.5-1.7,0.6-2.8,0.1-3.7c-0.4-0.8-1.5-0.8-1.6-0.8h-0.5l0-0.5l2.4-23.1l0.4,0 c0,0,1.1-0.1,2.8-0.3l0.3-2.3c0,0,7.3-0.8,15.1-0.9c9.8-0.1,14.9,0.4,14.9,0.4L127,55.8z" style="fill: rgb(255, 255, 255);"/>
    <path id="XMLID_00000118397866880954203870000016994177857023994501_" d="M83.3,102.7l-4.1-18.8l-1.5,7.4l3.5,14.8l0.5-0.1 c0,0,2.9-0.6,8.4-0.6c0.9,0,1.8,0,2.7,0.1c6.3,0.2,12.4,1.9,12.5,1.9l0.5,0.1l0.9-2.8c-2.4-0.6-7.2-1.8-13.8-2.1 C87,102.2,83.3,102.7,83.3,102.7z"/>
    <path id="XMLID_00000054954091707334321010000016952700342445052547_" d="M50.5,118.5L39,83.6c-0.5-1.4-0.9-2.6-2.4-3.1 c-1.6-0.5-2.8,0.3-2.8,0.3l2.8-25.5c-2,1.6-3.2,2.8-3.2,2.8l-0.1,0.1l-2.9,26.6l0.8-0.5c0,0,1.5-0.9,2.9-0.9c0.3,0,0.5,0,0.7,0.1 c1,0.3,1.4,0.9,1.8,2.3L49.7,124l0.5-0.9c5-8.1,11.4-12.7,21.8-15.8l0.3-0.1l0.5-2.5C63.9,107,55.8,110.8,50.5,118.5z"/>
    <path id="XMLID_00000036963012468707552650000015195372489398363322_" d="M68.4,68.5c0.5-1.9,0.8-2.7,0-4.2 C67.7,63,66.4,63,66.4,63l2.8-24.1c-1.8,0.6-2.9,0.9-2.9,1L66,40l-2.8,24.4L63.1,65l0.6-0.1c0.1,0,0.8-0.1,1.4,0.8 c0.7,0.9,0.4,1.8,0,3.5l-3.5,14.4l1.4,6.2L68.4,68.5z"/>
    <path id="XMLID_00000043435718047227429870000013636601611394954136_" d="M99.2,60c0.5-1.6,0.4-2.4-0.2-3.5 c-0.6-1.1-2.2-1.1-2.2-1.1l2.5-21.9c-1.7,0.2-2.7,0.3-2.8,0.3l-0.4,0L93.8,57l0,0.5h0.5c0.1,0,1.2,0,1.6,0.8c0.5,0.8,0.4,2-0.1,3.7 l-3.7,13.8l1.3,6.1L99.2,60z"/>
    <path id="XMLID_00000158743110056202421400000009456676040336436110_" class="st1" d="M114.7,30.3c-7.8,0.1-15.1,0.9-15.1,0.9 l-2.8,24.2c0,0,1.6,0,2.2,1.1c0.6,1.1,0.7,1.9,0.2,3.5l-5.7,21.9l-3.8-17.7c-0.4-1.4-0.3-3.6,0.3-5c0.5-1,1.1-1.4,1.6-1.5l2.7-26 c-1.7,0.2-7.2,0.8-13,2c-6.3,1.3-11.7,2.8-11.7,2.8l-0.3,2.4L66.4,63c0,0,1.2,0,1.9,1.3c0.8,1.5,0.5,2.2,0,4.2L63,89.7l-3.9-17.5 c-0.3-1.5-0.3-3.9,0.2-5.1c0.5-1.1,1.1-1.7,1.6-2L63.8,38c-2.3,0.8-9.7,3.5-15.9,7.1C41.3,48.9,36.7,53,36.7,53l-3,27.7 c0,0,1.3-0.8,2.8-0.3c1.6,0.5,2,1.7,2.4,3.1l11.5,34.9c5.3-7.7,13.4-11.5,22.4-13.7c0.8-0.2,1.5-0.4,2.3-0.5l4.1-20.4l4.1,18.8 c0,0,3.7-0.5,9.6-0.2c6.6,0.3,11.4,1.4,13.8,2.1c1,0.3,1.6,0.5,1.6,0.5l13.8-44.2c0,0,0.6-3.2,2.3-4.4c1.2-0.8,2.7-0.7,2.7-0.7 l2.6-25.2C129.7,30.7,124.5,30.2,114.7,30.3z" style="fill: rgb(160, 0, 0);"/>
    <path id="XMLID_00000096058720149199407770000011621976209195651509_" class="st1" d="M108.6,111.5c-1,0-1.8-0.8-1.8-1.8 c0-1,0.8-1.8,1.8-1.8c1,0,1.8,0.8,1.8,1.8C110.4,110.7,109.6,111.5,108.6,111.5 M108.6,108.1c-0.9,0-1.6,0.7-1.6,1.5 c0,0.9,0.7,1.6,1.6,1.6c0.9,0,1.6-0.7,1.6-1.6C110.1,108.8,109.5,108.1,108.6,108.1 M109.1,110.7l-0.5-0.8h-0.4v0.8h-0.3v-2.1h0.9 c0.4,0,0.7,0.2,0.7,0.6c0,0.5-0.4,0.6-0.5,0.6l0.6,0.8H109.1z M108.8,108.9h-0.6v0.7h0.6c0.2,0,0.4-0.1,0.4-0.4 C109.1,109,108.9,108.9,108.8,108.9" style="fill: rgb(160, 0, 0);"/>
  </g>
</svg>