<?xml version="1.0" encoding="UTF-8"?>
<svg width="57px" height="73px" viewBox="0 0 57 73" version="1.1" xmlns="http://www.w3.org/2000/svg" xmlns:xlink="http://www.w3.org/1999/xlink">
    <title>Group</title>
    <g id="Page-1" stroke="none" stroke-width="1" fill="none" fill-rule="evenodd">
        <g id="Big-Ten-Logo-Sheet-DIGITAL-6.25.25" transform="translate(-282, -85)" fill="#970310">
            <g id="Group" transform="translate(282.0484, 85.6115)">
                <polygon id="Fill-1463" points="38.334 9.552 38.334 14.962 42.074 14.962 42.074 45.091 34.159 45.091 34.159 5.41 38.367 5.41 38.367 0 18.626 0 18.626 5.41 22.834 5.41 22.834 45.091 14.83 45.091 14.83 14.962 18.57 14.962 18.57 9.552 0 9.552 0 14.962 4.195 14.962 4.195 49.85 11.02 56.816 22.834 56.816 22.834 64.857 18.641 64.857 18.641 71.825 38.353 71.825 38.353 64.857 34.159 64.857 34.159 56.816 45.883 56.816 52.709 49.85 52.709 14.962 56.914 14.962 56.914 9.552"></polygon>
                <path d="M42.2892,67.315 C41.0442,67.315 40.0342,68.324 40.0342,69.57 C40.0342,70.816 41.0442,71.825 42.2892,71.825 C43.5342,71.825 44.5432,70.816 44.5432,69.57 C44.5432,68.324 43.5342,67.315 42.2892,67.315 M42.2892,71.341 C41.3112,71.341 40.5182,70.549 40.5182,69.57 C40.5182,68.591 41.3112,67.799 42.2892,67.799 C43.2672,67.799 44.0612,68.591 44.0612,69.57 C44.0612,70.549 43.2672,71.341 42.2892,71.341" id="Fill-1464"></path>
                <path d="M43.2162,69.0482 C43.2162,68.6242 42.8732,68.2822 42.4512,68.2822 L41.3642,68.2822 L41.3642,70.8582 L41.8472,70.8582 L41.8472,69.8132 L42.1942,69.8132 L42.6812,70.8582 L43.2162,70.8582 L42.7072,69.7682 C43.0032,69.6622 43.2162,69.3782 43.2162,69.0482 M42.4512,69.3292 L41.8472,69.3292 L41.8472,68.7662 L42.4512,68.7662 C42.6062,68.7662 42.7322,68.8922 42.7322,69.0482 C42.7322,69.2032 42.6062,69.3292 42.4512,69.3292" id="Fill-1466"></path>
            </g>
        </g>
    </g>
</svg>