<?xml version="1.0" encoding="utf-8"?>
<svg viewBox="20 20 140 140" style="enable-background:new 20 20 140 140;" xmlns="http://www.w3.org/2000/svg">
  <defs>
    <style type="text/css">
	.st0{fill:#13294B;}
	.st1{fill:#FF5F05;}
</style>
  </defs>
  <g id="g-3" transform="matrix(0.9999999999999999, 0, 0, 0.9999999999999999, 24.70265769958496, 21.507232666015625)"/>
  <g id="Michigan_State_Primary_00000153675155524507652260000003324016386107511946_" transform="matrix(1.2463539838790894, 0, 0, 1.2463539838790894, -9.369407653808594, -9.996495246887205)" style="">
    <path class="st0" d="M121.7,32.3c0,0-5.7,12.3-8.6,18.4c-14.3-6.6-32.9-7.5-48.6,1.8c-10.5,6.4-18.9,17.8-19.8,30 c-0.3,8.1,3.2,17.1,2.1,25.2c-0.3,4.4-1.3,8.7-3.3,12.5c-2.6,4.4-5.7,8.1-11,8.4c1.2-1.5,9.2-5.4,6.1-23.7 c-1.3-7.3-11.2-25.3-1.6-47.8C45.7,36.5,83.8,12.1,121.7,32.3L121.7,32.3z" style="fill: rgb(23, 63, 53);"/>
    <path class="st0" d="M78,68.5c4.9-1.8,10.5-1.8,15.7-0.7c9.9,1.7,17.3,7.7,20.9,16.6c3.8,9.3,6.5,16.8,13,24.7 c0.2,0.2-10.1-1.5-10.1-1.8C120,88.9,102.7,88.1,97.9,95c3.6,4,9.8,6,14.6,5.2c-1,18.2,4.1,34.8,3.8,34.8 c-4.1-0.6-23.1-11.7-28.6-16.6c-8.1,1.5-14.5,4.5-24,5.8c-0.3,0,1.7-7,1.4-10.4c0-9.6-7.4-18.6-2.2-30.4 C66.1,76.3,70.8,71.1,78,68.5L78,68.5z" style="fill: rgb(23, 63, 53);"/>
    <path class="st0" d="M84.9,62.9c0.6,0,1.4,0.1,1.4,0.1c0.2-0.6,0.7-5.2,4.5-8.5c4.3-3.7,10-3.3,9.9-3.4c-5.6-1.7-11.5-1.8-15.5-1.5 L84.9,62.9L84.9,62.9z" style="fill: rgb(23, 63, 53);"/>
    <path class="st0" d="M48.9,79.5C48.1,85,48,90,48.5,92.7c0,0,0.8-4.6,3.5-7.3c2.3-2.3,5.3-2.7,6.3-2.7c0,0,0.5-1.8,0.5-1.8 L48.9,79.5L48.9,79.5z" style="fill: rgb(23, 63, 53);"/>
    <path class="st0" d="M59.9,78.5c0.3-0.7,0.6-1.4,1.1-2.2l-10-3.9c-0.6,1.3-1.1,3.1-1.3,4.1L59.9,78.5L59.9,78.5z" style="fill: rgb(23, 63, 53);"/>
    <path class="st0" d="M62.3,74.7c0,0,1.6-2.1,1.6-2l-9.2-6.9c-1,1.2-1.7,2.5-2.4,3.9L62.3,74.7L62.3,74.7z" style="fill: rgb(23, 63, 53);"/>
    <path class="st0" d="M65.7,70.9c0.1-0.1,2-1.9,2-1.9l-8-9.1c-1.8,1.6-2.3,2.3-3.4,3.6L65.7,70.9L65.7,70.9z" style="fill: rgb(23, 63, 53);"/>
    <path class="st0" d="M69.9,67.7c0,0.1,2.3-1.3,2.3-1.4l-5.9-10.8c-2.3,1.1-3.7,2.3-4.4,2.7L69.9,67.7L69.9,67.7z" style="fill: rgb(23, 63, 53);"/>
    <path class="st0" d="M74.2,65.4c2.8-1,2.8-1,2.8-0.9l-3.4-12.1c-1.9,0.5-4.4,1.6-5,2L74.2,65.4L74.2,65.4z" style="fill: rgb(23, 63, 53);"/>
    <path class="st0" d="M79.2,63.7c0.1,0.1,2.5-0.5,2.6-0.5L82.1,50c-0.1,0.1-3,0.5-5.5,1.3L79.2,63.7L79.2,63.7z" style="fill: rgb(23, 63, 53);"/>
    <path class="st0" d="M124.2,132.9h0.3c0.3,0,0.6-0.1,0.6-0.4c0-0.2-0.2-0.4-0.6-0.4c-0.2,0-0.3,0-0.3,0V132.9L124.2,132.9z M124.2,134.2h-0.4v-2.3c0.2,0,0.5-0.1,0.8-0.1c0.4,0,0.6,0.1,0.7,0.2c0.1,0.1,0.2,0.3,0.2,0.5c0,0.3-0.2,0.5-0.4,0.5v0 c0.2,0.1,0.3,0.3,0.4,0.6c0.1,0.3,0.1,0.5,0.2,0.6h-0.4c-0.1-0.1-0.1-0.3-0.2-0.6c-0.1-0.3-0.2-0.4-0.5-0.4h-0.3V134.2L124.2,134.2 z M124.6,131.2c-1,0-1.8,0.8-1.8,1.8c0,1,0.8,1.8,1.8,1.8c1,0,1.7-0.8,1.7-1.8C126.4,132,125.6,131.2,124.6,131.2L124.6,131.2 L124.6,131.2z M124.6,130.8c1.2,0,2.2,1,2.2,2.2c0,1.3-1,2.2-2.2,2.2c-1.3,0-2.3-1-2.3-2.2C122.3,131.8,123.3,130.8,124.6,130.8 L124.6,130.8L124.6,130.8z" style="fill: rgb(23, 63, 53);"/>
  </g>
</svg>