<?xml version="1.0" encoding="utf-8"?>
<svg viewBox="20 20 140 140" style="enable-background:new 20 20 140 140;" xmlns="http://www.w3.org/2000/svg">
  <defs>
    <style type="text/css">
	.st0{fill:#13294B;}
	.st1{fill:#FF5F05;}
</style>
  </defs>
  <g id="g-3" transform="matrix(0.9999999999999999, 0, 0, 0.9999999999999999, 24.70265769958496, 21.507232666015625)"/>
  <g id="g-5" transform="matrix(0.9999999999999999, 0, 0, 0.9999999999999999, 22.567710876464844, 24.59016227722168)"/>
  <g id="g-6" transform="matrix(0.9999999999999999, 0, 0, 0.9999999999999999, 33.770503997802734, 22.950822830200195)"/>
  <g id="g-7" transform="matrix(0.9999999999999999, 0, 0, 0.9999999999999999, 21.80329132080078, 24.262292861938477)"/>
  <g id="g-8" transform="matrix(0.9999999999999999, 0, 0, 0.9999999999999999, 20.980606079101562, 31.300701141357422)"/>
  <g id="Purdue_on_Light_00000174575512245764310600000002190959005972370868_" transform="matrix(1.0325820446014404, 0, 0, 1.0325820446014404, 7.384304046630859, 8.747742652893066)" style="">
    <path d="M14.6,114.9l11-25.8h14.1l7.8-18.4H33.5l11-25.7h77.7c6.8,0,16.4,0.8,21,7.6c4.5,6.9,1.1,15-1,19.8 c-5.6,13-13.6,21.7-34.8,21.7H92.8L84,114.9H14.6z"/>
    <path class="st0" d="M139.1,55.2c-2.5-3.7-7.9-5.5-17-5.5H47.6l-6.9,16.2h14.1L42.9,93.9H28.8l-6.9,16.2h58.9l6.9-16.2H73.4 l1.9-4.5h32.1c20.6,0,26.1-8.9,30.4-18.8C140,65.2,142,59.6,139.1,55.2z M85.3,65.9h23.6c1.7,0,2.5,0.4,2.6,0.7 c0.2,0.2,0.1,0.9-0.3,2c-1.2,2.8-4.1,4.6-7.5,4.6H82.2L85.3,65.9z" style="fill: rgb(157, 150, 141);"/>
    <path class="st1" d="M122.2,52.2H49.2l-4.8,11.2h14.1l-14,32.9H30.4l-4.8,11.2h53.5l4.8-11.2H69.7l4-9.5h33.7 c19.3,0,24.2-8.2,28.1-17.3C139.4,60.4,141.5,52.2,122.2,52.2z M103.7,75.6H78.5l5.2-12.2h25.2c4.5,0,6.3,2.3,4.6,6.1 C111.9,73.3,108.1,75.6,103.7,75.6z" style="fill: rgb(206, 184, 136);"/>
    <path d="M89.4,111.2c0.9,0,1.7,0.7,1.7,1.7c0,0.9-0.8,1.7-1.7,1.7c-0.9,0-1.7-0.7-1.7-1.7C87.7,111.9,88.5,111.2,89.4,111.2z M89.4,114.9c1.1,0,2-0.9,2-2c0-1.1-0.9-2-2-2c-1.1,0-2,0.9-2,2C87.4,114,88.3,114.9,89.4,114.9z M89.7,113c0.3,0,0.6-0.2,0.6-0.6 c0-0.5-0.4-0.6-0.8-0.6h-0.9v2.2H89v-1h0.4l0.6,1h0.4L89.7,113z M89.5,112.1c0.3,0,0.5,0,0.5,0.3c0,0.3-0.4,0.3-0.7,0.3H89v-0.6 H89.5z"/>
  </g>
</svg>