<?xml version="1.0" encoding="UTF-8"?>
<svg id="ORE" xmlns="http://www.w3.org/2000/svg" viewBox="0 0 279.12 229.97">
  <defs>
    <style>
      .cls-1 {
        fill: #00934b;
      }
    </style>
  </defs>
  <g id="Primary-4">
    <g id="OnDark-4">
      <path class="cls-1" d="M254.55,35.82C237.01,18.78,196.77,.03,139.55,0,82.34,.03,42.11,18.78,24.57,35.82,.27,59.72,0,87.73,0,115.35s.53,55.14,24.57,78.8c17.54,17.04,57.78,35.79,114.98,35.82,57.21-.03,97.46-18.78,115-35.82,24.31-23.9,24.57-51.9,24.57-79.54s-.53-55.14-24.57-78.79m-60.99,157.9c-10.77,10.87-28.86,20.17-53.81,20.17s-43.05-9.3-53.81-20.17c-13.71-13.94-17.61-21.69-17.61-78.26s3.91-64.32,17.61-78.27c10.75-10.85,28.86-20.14,53.81-20.14s43.04,9.29,53.81,20.14c13.7,13.95,17.61,21.71,17.61,78.27s-3.91,64.32-17.61,78.26"/>
      <path class="cls-1" d="M264.33,207.8c4.05,0,7.44,3.22,7.44,7.41s-3.38,7.41-7.44,7.41-7.43-3.24-7.43-7.41,3.38-7.41,7.43-7.41m0,16.26c4.96,0,8.87-3.91,8.87-8.85s-3.92-8.85-8.87-8.85-8.87,3.91-8.87,8.85,3.92,8.85,8.87,8.85m1.54-8.4c1.33-.04,2.65-.77,2.65-2.72,0-2.1-1.62-2.64-3.42-2.64h-4.19v9.95h1.44v-4.6h1.85l2.55,4.6h1.64l-2.52-4.6h0Zm-1.04-3.91c1.19,0,2.25,.09,2.25,1.35,0,1.35-1.85,1.13-3.2,1.13h-1.54v-2.48h2.49Z"/>
    </g>
  </g>
</svg>