<?xml version="1.0" encoding="utf-8"?>
<svg viewBox="20 20 140 140" style="enable-background:new 20 20 140 140;" xmlns="http://www.w3.org/2000/svg">
  <defs>
    <style type="text/css">
	.st0{fill:#13294B;}
	.st1{fill:#FF5F05;}
</style>
  </defs>
  <g id="g-3" transform="matrix(0.9999999999999999, 0, 0, 0.9999999999999999, 24.70265769958496, 21.507232666015625)"/>
  <g id="g-5" transform="matrix(0.9999999999999999, 0, 0, 0.9999999999999999, 22.567710876464844, 24.59016227722168)"/>
  <g id="g-6" transform="matrix(0.9999999999999999, 0, 0, 0.9999999999999999, 33.770503997802734, 22.950822830200195)"/>
  <g id="g-7" transform="matrix(0.9999999999999999, 0, 0, 0.9999999999999999, 21.80329132080078, 24.262292861938477)"/>
  <g id="g-8" transform="matrix(0.9999999999999999, 0, 0, 0.9999999999999999, 20.980606079101562, 31.300701141357422)"/>
  <g id="g-10" transform="matrix(0.9999999999999999, 0, 0, 0.9999999999999999, 22.37459373474121, 25.42377471923828)"/>
  <g id="Rutgers_on_Light_00000132074761165763290540000011308837302919125639_" transform="matrix(1.285701036453247, 0, 0, 1.285701036453247, -20.517250061035156, -14.134991645812987)" style="">
    <path class="st0" d="M91.4,69.3L91.4,69.3c-3,2.3-7.3,3.5-12.9,3.5H66.1V50.9c8.4,0,15.3,0,15.3,0c4.8,0,8.5,1.3,11,4 c1.8,1.8,2.8,4.1,2.8,6.9C95.2,64.7,93.9,67.2,91.4,69.3L91.4,69.3z M102.3,81.8l1.4-0.5c11.4-4.3,17-10.8,17-19.9 c0-6.3-2.5-11.4-7.7-15.7c-5.5-4.4-13-6.7-22.4-6.7c0,0-53.6,0-55.8,0c0,1.8,0,10.1,0,11.9c0.3,0,2.8,0,6.5,0v58.2h-6.5V121h38.1 v-11.9h-6.7V84h13.8l15.8,25.1h-8.9V121H128v-11.9h-7.8L102.3,81.8L102.3,81.8z" style="fill: rgb(207, 16, 45);"/>
    <path class="st0" d="M136,115.2c0.6,0,1.1,0,1.1,0.6c0,0.6-0.9,0.5-1.5,0.5h-0.7v-1.2H136L136,115.2z M136.4,117.1 c0.6,0,1.2-0.4,1.2-1.3c0-1-0.8-1.2-1.6-1.2h-2v4.6h0.7v-2.1h0.9l1.2,2.1h0.8L136.4,117.1L136.4,117.1z M135.7,121 c2.3,0,4.1-1.8,4.1-4.1c0-2.3-1.8-4.1-4.1-4.1c-2.3,0-4.1,1.8-4.1,4.1C131.6,119.2,133.4,121,135.7,121L135.7,121z M135.7,113.4 c1.9,0,3.5,1.5,3.5,3.5c0,1.9-1.6,3.5-3.5,3.5c-1.9,0-3.5-1.5-3.5-3.5C132.3,114.9,133.8,113.4,135.7,113.4L135.7,113.4z" style="fill: rgb(207, 16, 45);"/>
    <path d="M90,67.6L90,67.6c-2.5,2-6.4,3-11.5,3H68.4V53.2l13,0c4.1,0,7.3,1.1,9.4,3.3l0,0c1.4,1.4,2.1,3.1,2.1,5.3 C92.9,64,92,65.9,90,67.6L90,67.6z M81.4,50.9c0,0-6.8,0-15.3,0v21.9h12.4c5.6,0,10-1.2,12.9-3.5l0,0c2.5-2.1,3.8-4.7,3.8-7.6 c0-2.7-0.9-5-2.8-6.9C89.9,52.2,86.1,50.9,81.4,50.9L81.4,50.9z"/>
    <path d="M128,121H86.8v-11.9h8.9L79.9,84H66.1v25.1h6.7V121H34.7v-11.9h6.5V50.9c-3.7,0-6.2,0-6.5,0c0-1.8,0-10.1,0-11.9 c2.3,0,55.8,0,55.8,0c9.4,0,16.9,2.3,22.4,6.7c5.2,4.3,7.7,9.4,7.7,15.7c0,9.1-5.6,15.6-17,19.9l-1.4,0.5l18,27.3h7.8V121L128,121z M121.5,106.9l-15.8-23.9c11.4-4.6,17.2-11.9,17.2-21.5c0-7-2.8-12.7-8.5-17.4c-5.9-4.8-13.9-7.2-23.8-7.2l-58.1,0v16.4 c0,0,4.1,0,6.5,0v53.7h-6.5v16.4h42.6v-16.4h-6.7V86.3h10.3l13,20.6h-7.1v16.4h45.7v-16.4H121.5L121.5,106.9z"/>
  </g>
</svg>