<?xml version="1.0" encoding="UTF-8"?>
<svg id="UCLA" xmlns="http://www.w3.org/2000/svg" viewBox="0 0 363 173.42">
  <defs>
    <style>
      .cls-1 {
        fill: #2774ae;
      }
    </style>
  </defs>
  <g id="Primary-3">
    <path class="cls-1" d="M357.73,77.94c-2.86,0-5.29,2.2-5.29,5.19s2.43,5.23,5.29,5.23,5.27-2.21,5.27-5.23-2.43-5.19-5.27-5.19m0,9.55c-2.38,0-4.25-1.85-4.25-4.36s1.87-4.32,4.25-4.32,4.22,1.86,4.22,4.32-1.86,4.36-4.22,4.36m2.4-5.64c0-1.18-.71-1.71-2.13-1.71h-2.29v6.01h.91v-2.61h1.05l1.59,2.61h1.01l-1.71-2.64c.88-.11,1.56-.58,1.56-1.66m-3.49,.92v-1.85h1.24c.63,0,1.32,.13,1.32,.88,0,.93-.69,.97-1.46,.97h-1.1Z"/>
    <path class="cls-1" d="M359.9,140.67c-.84-2.01-2.58-3.13-4.91-3.13-3.53,0-8.27,2.52-13.73,7.28-2.73,2.38-7.04,4.93-10.06,4.93-1.19,0-2.07-.4-2.62-1.21-.93-1.37-1.39-4.68,1.74-12.69,.79-2.39,4.48-11.68,8.05-20.66,3.91-9.86,7.96-20.05,8.4-21.64,1.99-5.43,1.99-9.83-.03-12.72-1.61-2.3-4.47-3.57-8.06-3.57-7.6,0-17.14,5.5-19.75,14.44-5.24-9.31-12.47-14.23-20.98-14.23s-17.36,4.61-25.61,12.98c-12.08,12.24-19.76,30.01-19.59,45.3-1.11,1.18-13.66,14.35-23.27,14.35-.91,0-1.79-.12-2.59-.36-1.35-.4-2.42-1.32-3.15-2.75-4.15-7.97,2.67-29.06,3.09-30.35,28.59-29.93,45.16-57.63,51.29-71.45,6.75-15.23,8.99-29.23,3.29-38.38-2.69-4.33-7.68-6.61-14.82-6.76-.58-.04-1.17-.05-1.75-.05-15.41,0-25.42,11.46-30,18.29-9.84,15.14-29.58,67.13-39.42,117.43-4.67,4.24-10.78,7.29-15.68,9.76-1.02,.51-1.97,.99-2.84,1.44-4.42,2.31-8.42,3.48-11.89,3.48h0c-4.61,0-8.22-2.1-10.41-6.08-5.11-9.22-1.96-26.39,7.66-41.75,2.96-4.73,7.86-7.79,12.48-7.79,2.22,0,4.1,.75,5.3,2.12,1.15,1.3,1.67,3.12,1.53,5.32-1.88-2.25-4.32-3.48-6.95-3.48-4.25,0-9.23,3.49-10.11,11.16-.11,2.45,.73,4.69,2.45,6.48,2.29,2.4,6.03,3.84,10,3.84,8.3,0,16.87-6.11,17.29-19.76,.19-6.39-1.68-11.8-5.42-15.66-4.06-4.19-10.28-6.5-17.52-6.5-11.15,0-23.23,5.34-32.31,14.29-7.59,7.47-16.73,20.94-17.16,42.67-.32,.82-5.13,12.66-15.95,14.75-1.82,.36-3.22-.11-4.27-1.44-3.22-4.09-2.72-15.83,1.42-33.09,2.42-11.14,3.44-14.93,4.62-19.3,.89-3.3,1.9-7.05,3.69-14.62,1.54-6.51,5.8-22.31,9.93-37.58,4.04-14.96,7.87-29.09,8.22-31.26,.78-4.71-2.23-8.82-7.33-10.01-2.16-.5-4.17-.75-6.11-.75-3.37,0-6.62,.75-9.68,2.25-6.15,3-8.52,9.26-9.42,13.97-3.71,14.89-6.42,24.74-8.81,33.43-2.77,10.07-5.16,18.77-8.23,32.12-.21,.91-.46,2.02-.75,3.31-3.81,16.91-13.95,61.83-29.63,61.83-.3,0-.6-.01-.91-.05-2.66-.3-4.58-1.33-5.88-3.15-2.88-4.04-2.74-12.2,.46-26.44,3.06-11.92,6.16-22.69,9.16-33.1,3.7-12.83,7.2-24.95,9.97-37.11,3.61-13.73,1.68-27.22-5.16-36.08-5.08-6.58-12.41-10.06-21.2-10.06-5.54,0-11.59,1.38-18,4.1C3.48,13.13-1.6,30.98,.43,40.97c1.09,5.36,4,8.43,7.98,8.43h.1c6.34-.07,6.57-6.41,6.76-12.01,.04-1.18,.08-2.29,.18-3.3,1.29-7.33,5.18-11.53,10.69-11.53,.23,0,.46,0,.63,.02,8.14,2.12,8.66,7.75,6.11,23.57-.62,2.12-1.27,4.32-1.95,6.61-5.31,17.95-11.91,40.3-18.22,68.54-4.34,19.64-2.91,34.11,4.24,43,6.05,7.54,14.64,9.12,20.78,9.12,4.8,0,9.75-.98,13.93-2.77,9.4-4.02,13.26-7.89,19.11-19.35,3.22,13.93,11.08,21.59,22.17,21.59s23.37-7.47,32.82-19.55c3.34,10.78,13.42,17.59,21.77,18.76,2.41,.47,4.9,.71,7.39,.71,18.61,0,34.73-13.06,41.19-19.1,2.05,12.56,10.14,19.47,22.84,19.47,13.86,0,30.63-8.44,38.46-19.3,5.43,12.12,13.42,18.8,22.54,18.8s19.42-7.57,23.96-18.2c.19,6.21,1.99,11.19,5.24,14.47,2.86,2.88,6.79,4.41,11.38,4.41h0c4.31,0,9.11-1.36,13.85-3.91,9.13-4.58,10.92-6.13,22.14-16.83,3.36-3.4,4.82-8.54,3.39-11.97m-74.83,9.02c-6.45-2.01-5.29-11.67-3.3-20.86,5.03-23.69,17.23-31.74,17.37-31.83,2.02-1.46,3.92-2.19,5.65-2.19s3.18,.74,4.3,2.14c2.19,2.75,2.81,7.78,1.61,13.12-.6,2.68-11.65,29.43-11.74,29.67-3.69,6.81-7.64,10.11-12.08,10.11-.6,0-1.21-.06-1.81-.17m-47.62-63.81c1.79-6.86,9.85-35.53,23.79-58.89,3.11-4.38,6.25-7.01,8.41-7.01,.72,0,1.3,.31,1.71,.91,1.31,1.92,.78,6.4-1.42,12.01-7.78,19.87-25.49,45.96-32.49,52.98"/>
  </g>
</svg>