<?xml version="1.0" encoding="utf-8"?>
<svg viewBox="20 20 140 140" style="enable-background:new 20 20 140 140;" xmlns="http://www.w3.org/2000/svg">
  <defs>
    <style type="text/css">
	.st0{fill:#13294B;}
	.st1{fill:#FF5F05;}
</style>
  </defs>
  <g style="" transform="matrix(1.2787489891052246, 0, 0, 1.2787489891052246, -14.741893768310547, -12.217935562133787)">
    <path class="st0" d="M100.9,109.3h12.5v20.9H46.5v-20.9H59c2.3,0,4.2-1.9,4.2-4.2V54.9c0-2.3-1.9-4.2-4.2-4.2H46.5V29.8h66.9v20.9 h-12.5c-2.3,0-4.2,1.9-4.2,4.2v50.2C96.7,107.4,98.6,109.3,100.9,109.3L100.9,109.3z M117.6,54.9V25.6H42.3v29.3H59v50.2H42.3v29.3 h75.3v-29.3h-16.7V54.9H117.6L117.6,54.9z"/>
    <path class="st1" d="M100.9,50.7h12.5V29.8H46.5v20.9H59c2.3,0,4.2,1.9,4.2,4.2v50.2c0,2.3-1.9,4.2-4.2,4.2H46.5v20.9h66.9v-20.9 h-12.5c-2.3,0-4.2-1.9-4.2-4.2V54.9C96.7,52.6,98.6,50.7,100.9,50.7L100.9,50.7z"/>
    <path class="st0" d="M122.7,130.8h-1.3v3.4h-0.6v-3.4h-1.3v-0.6h3.2V130.8L122.7,130.8z M127.7,134.1h-0.6v-3.4h0l-1.4,3.4h-0.4 l-1.3-3.4h0v3.4h-0.6v-4h1l1.1,2.8l1.2-2.8h1V134.1L127.7,134.1z"/>
  </g>
</svg>