<?xml version="1.0" encoding="utf-8"?>
<svg viewBox="20 20 140 140" style="enable-background:new 20 20 140 140;" xmlns="http://www.w3.org/2000/svg">
  <defs>
    <style type="text/css">
	.st0{fill:#13294B;}
	.st1{fill:#FF5F05;}
</style>
  </defs>
  <g id="Schools" transform="matrix(1.2610809803009033, 0, 0, 1.2610809803009033, -19.319345474243164, -18.911699295043945)" style="">
    <g class="st0" style="display: none; fill: rgb(0, 0, 0);">
      <path class="st1" d="M100.86,109.28h12.55v20.91H46.48v-20.91h12.55c2.31,0,4.18-1.87,4.18-4.18V54.9c0-2.31-1.87-4.18-4.18-4.18 H46.48V29.8h66.93v20.91h-12.55c-2.31,0-4.18,1.87-4.18,4.18v50.2C96.68,107.41,98.55,109.28,100.86,109.28L100.86,109.28z M117.59,54.9V25.62H42.3V54.9h16.73v50.2H42.3v29.28h75.29V105.1h-16.73V54.9H117.59L117.59,54.9z" style="fill: rgb(19, 41, 75);"/>
      <path class="st2" d="M100.86,50.72h12.55V29.8H46.48v20.91h12.55c2.31,0,4.18,1.87,4.18,4.18v50.2c0,2.31-1.87,4.18-4.18,4.18 H46.48v20.91h66.93v-20.91h-12.55c-2.31,0-4.18-1.87-4.18-4.18V54.9C96.68,52.59,98.55,50.72,100.86,50.72L100.86,50.72z" style="fill: rgb(232, 74, 39);"/>
      <path class="st1" d="M122.7,130.8h-1.3v3.35h-0.6v-3.35h-1.3v-0.6h3.2V130.8L122.7,130.8z M127.7,134.15h-0.6v-3.35h-0.02 l-1.35,3.35h-0.37l-1.32-3.35h-0.02v3.35h-0.6v-3.96h0.99l1.14,2.79l1.18-2.79h0.98V134.15L127.7,134.15z" style="fill: rgb(19, 41, 75);"/>
    </g>
    <g class="st0" style="display: none; fill: rgb(0, 0, 0);">
      <polygon class="st3" points="95.64,38.26 95.64,46.83 101.56,46.83 101.56,94.53 89.03,94.53 89.03,31.7 95.69,31.7 95.69,23.13 &#10;&#9;&#9;&#9;64.43,23.13 64.43,31.7 71.1,31.7 71.1,94.53 58.42,94.53 58.42,46.83 64.34,46.83 64.34,38.26 34.94,38.26 34.94,46.83 &#10;&#9;&#9;&#9;41.58,46.83 41.58,102.07 52.39,113.1 71.1,113.1 71.1,125.83 64.46,125.83 64.46,136.87 95.67,136.87 95.67,125.83 89.03,125.83 &#10;&#9;&#9;&#9;89.03,113.1 107.59,113.1 118.4,102.07 118.4,46.83 125.06,46.83 125.06,38.26 95.64,38.26 &#9;&#9;" style="fill: rgb(159, 5, 51);"/>
      <path class="st3" d="M101.9,136.1c-1.55,0-2.8-1.25-2.8-2.8c0-1.55,1.25-2.8,2.8-2.8c1.55,0,2.81,1.25,2.81,2.8 C104.71,134.85,103.45,136.1,101.9,136.1L101.9,136.1z M101.9,129.72c-1.97,0-3.57,1.6-3.57,3.57c0,1.97,1.6,3.57,3.57,3.57 c1.97,0,3.57-1.6,3.57-3.57C105.47,131.32,103.87,129.72,101.9,129.72L101.9,129.72z" style="fill: rgb(159, 5, 51);"/>
      <path class="st3" d="M102.16,132.91h-0.96v-0.89h0.96c0.25,0,0.45,0.2,0.45,0.45C102.6,132.71,102.4,132.91,102.16,132.91 L102.16,132.91z M103.37,132.47c0-0.67-0.54-1.21-1.21-1.21h-1.72v4.08h0.76v-1.66h0.55l0.77,1.66h0.85l-0.81-1.73 C103.03,133.44,103.37,132.99,103.37,132.47L103.37,132.47z" style="fill: rgb(159, 5, 51);"/>
    </g>
    <g class="st0" style="display: none; fill: rgb(0, 0, 0);">
      <polygon class="st6" points="129.08,119.73 98.53,119.73 98.53,84.12 86.28,111.74 74.31,111.74 62.05,84.11 62.05,119.73 &#10;&#9;&#9;&#9;31.92,119.73 39.79,102.45 39.8,45.27 32.57,26.01 60.94,26.01 80.28,70.71 99.63,26.01 127.89,26.01 120.78,45.17 120.78,102.43 &#10;&#9;&#9;&#9;129.08,119.73 &#9;&#9;"/>
      <polygon class="st7" points="125.61,117.55 100.72,117.55 100.72,73.79 84.86,109.56 75.73,109.56 59.86,73.79 59.86,117.55 &#10;&#9;&#9;&#9;35.32,117.55 41.98,102.93 41.98,44.87 35.72,28.19 59.5,28.19 80.28,76.22 101.07,28.19 124.74,28.19 118.59,44.78 &#10;&#9;&#9;&#9;118.59,102.93 125.61,117.55 &#9;&#9;" style="fill: rgb(255, 213, 32);"/>
      <polygon class="st8" points="123.08,115.95 117,103.29 117,44.49 122.46,29.78 102.11,29.78 80.28,80.22 58.46,29.78 38.02,29.78 &#10;&#9;&#9;&#9;43.58,44.59 43.57,103.27 37.79,115.95 58.27,115.95 58.27,66.28 76.76,107.97 83.82,107.97 102.31,66.29 102.31,115.95 &#10;&#9;&#9;&#9;123.08,115.95 &#9;&#9;" style="fill: rgb(228, 29, 58);"/>
      <polygon class="st6" points="107.68,126.76 102.36,126.76 106.75,129.6 106.75,132.48 112.14,132.48 107.68,129.48 107.68,126.76 &#10;&#9;&#9;&#9;&#9;&#9;"/>
      <polygon class="st6" points="118.64,128.59 123.19,131.59 123.19,132.48 125.51,132.48 124.12,131.54 124.12,126.76 &#10;&#9;&#9;&#9;117.72,126.76 117.72,127.27 116.95,126.76 112.23,126.76 112.23,132.48 118.64,132.48 118.64,128.59 &#9;&#9;"/>
      <polygon class="st6" points="96.68,126.76 96.68,129.6 96.68,132.48 102.2,132.48 102.2,126.76 96.68,126.76 &#9;&#9;"/>
      <polygon class="st7" points="102.36,126.76 102.2,126.76 102.2,132.48 106.75,132.48 106.75,129.6 102.36,126.76 &#9;&#9;" style="fill: rgb(255, 213, 32);"/>
      <polygon class="st7" points="107.68,126.76 107.68,129.48 112.14,132.48 112.23,132.48 112.23,126.76 107.68,126.76 &#9;&#9;" style="fill: rgb(255, 213, 32);"/>
      <polygon class="st7" points="117.72,126.76 116.95,126.76 117.72,127.27 117.72,126.76 &#9;&#9;" style="fill: rgb(255, 213, 32);"/>
      <polygon class="st7" points="118.64,128.59 118.64,132.48 123.19,132.48 123.19,131.59 118.64,128.59 &#9;&#9;" style="fill: rgb(255, 213, 32);"/>
      <polygon class="st7" points="125.51,132.48 127.15,132.48 125.16,129.57 127.13,126.76 124.12,126.76 124.12,131.54 &#10;&#9;&#9;&#9;125.51,132.48 &#9;&#9;" style="fill: rgb(255, 213, 32);"/>
      <path class="st9" d="M64.59,129.6c0-0.96,1.41-1.75,3.35-1.86c0.08-0.35,0.18-0.68,0.32-0.97h-3.89l0,2.83H64.59L64.59,129.6z" style="fill: rgb(255, 255, 255);"/>
      <path class="st9" d="M78.05,127.44v-0.68h-6.4c0.1,0.21,0.18,0.43,0.25,0.68H78.05L78.05,127.44z" style="fill: rgb(255, 255, 255);"/>
      <path class="st9" d="M96.41,129.6C96.41,129.6,96.41,129.6,96.41,129.6c0,0.97-1.4,1.75-3.34,1.87c-0.08,0.37-0.2,0.71-0.34,1.01 h3.95v-2.88H96.41L96.41,129.6z" style="fill: rgb(255, 255, 255);"/>
      <path class="st9" d="M82.88,131.77v0.71h6.49c-0.1-0.22-0.2-0.45-0.27-0.71H82.88L82.88,131.77z" style="fill: rgb(255, 255, 255);"/>
      <path class="st8" d="M71.9,131.77c-0.07,0.26-0.17,0.49-0.27,0.71h6.42v-0.71H71.9L71.9,131.77z" style="fill: rgb(228, 29, 58);"/>
      <path class="st8" d="M64.59,129.6C64.59,129.6,64.59,129.6,64.59,129.6l-0.22-0.01l0,2.88h3.91c-0.14-0.3-0.26-0.64-0.34-1.01 C66,131.35,64.59,130.56,64.59,129.6L64.59,129.6z" style="fill: rgb(228, 29, 58);"/>
      <path class="st8" d="M96.41,129.6h0.27v-2.83h-3.93c0.14,0.29,0.24,0.62,0.32,0.97C95,127.85,96.4,128.64,96.41,129.6L96.41,129.6 z" style="fill: rgb(228, 29, 58);"/>
      <path class="st8" d="M89.1,127.44c0.07-0.24,0.15-0.47,0.25-0.68h-6.47v0.68H89.1L89.1,127.44z" style="fill: rgb(228, 29, 58);"/>
      <path class="st9" d="M64.59,129.6C64.59,129.6,64.59,129.6,64.59,129.6c0,0.97,1.4,1.75,3.35,1.87c0.08,0.37,0.19,0.71,0.34,1.01 h3.36c0.1-0.22,0.2-0.45,0.27-0.71h6.15v0.71h2.42v-2.88H64.59L64.59,129.6z" style="fill: rgb(255, 255, 255);"/>
      <path class="st8" d="M96.41,129.6C96.41,129.6,96.41,129.6,96.41,129.6l-15.94-0.01v2.88h2.41v-0.71h6.22 c0.07,0.26,0.16,0.49,0.27,0.71h3.36c0.14-0.3,0.26-0.64,0.34-1.01C95.01,131.35,96.41,130.56,96.41,129.6L96.41,129.6z" style="fill: rgb(228, 29, 58);"/>
      <path class="st9" d="M96.41,129.6c-0.01-0.95-1.41-1.75-3.34-1.86c-0.08-0.35-0.19-0.68-0.32-0.97h-3.39 c-0.1,0.21-0.19,0.43-0.25,0.68h-6.22v-0.68h-2.41v2.83H96.41L96.41,129.6z" style="fill: rgb(255, 255, 255);"/>
      <path class="st8" d="M64.59,129.6h15.87v-2.83h-2.42v0.68H71.9c-0.07-0.24-0.16-0.47-0.25-0.68h-3.39 c-0.14,0.29-0.25,0.62-0.32,0.97C66,127.85,64.6,128.64,64.59,129.6L64.59,129.6z" style="fill: rgb(228, 29, 58);"/>
      <polygon class="st6" points="33.88,126.76 35.85,129.57 33.86,132.48 37.53,132.48 37.53,126.76 33.88,126.76 &#9;&#9;"/>
      <polygon class="st6" points="59.47,126.76 53.07,126.76 53.07,127.27 52.29,126.76 47.57,126.76 47.57,132.48 53.98,132.48 &#10;&#9;&#9;&#9;53.98,128.59 58.53,131.59 58.53,132.48 60.87,132.48 59.47,131.54 59.47,126.76 &#9;&#9;"/>
      <polygon class="st6" points="43.02,126.76 37.7,126.76 42.08,129.6 42.08,132.48 47.48,132.48 43.02,129.48 43.02,126.76 &#9;&#9;"/>
      <polygon class="st7" points="37.7,126.76 37.53,126.76 37.53,132.48 42.08,132.48 42.08,129.6 37.7,126.76 &#9;&#9;" style="fill: rgb(255, 213, 32);"/>
      <polygon class="st7" points="43.02,126.76 43.02,129.48 47.48,132.48 47.57,132.48 47.57,126.76 43.02,126.76 &#9;&#9;" style="fill: rgb(255, 213, 32);"/>
      <polygon class="st7" points="53.07,126.76 52.29,126.76 53.07,127.27 53.07,126.76 &#9;&#9;" style="fill: rgb(255, 213, 32);"/>
      <polygon class="st7" points="53.98,128.59 53.98,132.48 58.53,132.48 58.53,131.59 53.98,128.59 &#9;&#9;" style="fill: rgb(255, 213, 32);"/>
      <polygon class="st7" points="64.37,126.76 59.47,126.76 59.47,131.54 60.87,132.48 64.37,132.48 64.37,129.6 64.37,126.76 &#9;&#9;" style="fill: rgb(255, 213, 32);"/>
      <path class="st6" d="M33.86,132.48h93.29l-1.99-2.91l1.97-2.81H33.88l1.97,2.8L33.86,132.48L33.86,132.48z M129.92,133.99H31.08 l2.61-4.42l-2.6-4.33h98.84l-2.61,4.33L129.92,133.99L129.92,133.99z"/>
      <polygon class="st6" points="132.34,130.8 134.91,130.8 134.91,131.22 133.88,131.22 133.88,133.92 133.38,133.92 133.38,131.22 &#10;&#9;&#9;&#9;132.34,131.22 132.34,130.8 &#9;&#9;"/>
      <polygon class="st6" points="135.31,130.8 136.14,130.8 137.06,133.3 137.99,130.8 138.81,130.8 138.81,133.92 138.31,133.92 &#10;&#9;&#9;&#9;138.31,131.33 138.24,131.33 137.32,133.81 136.79,133.81 135.88,131.33 135.8,131.33 135.8,133.92 135.31,133.92 135.31,130.8 &#9;&#9;&#10;&#9;&#9;&#9;"/>
    </g>
    <g id="g-3" transform="matrix(1, 0, 0, 1, -11.371323, 1.803556)"/>
    <g id="g-4" transform="matrix(1, 0, 0, 1, 84.163841, 9.995275)"/>
    <g id="g-5" transform="matrix(1, 0, 0, 1, 5.349989, 16.229786)"/>
    <g transform="matrix(1, 0, 0, 1, 1.745989, 6.233785)">
      <polygon points="128.8,119.7 98.2,119.7 98.2,84.1 85.9,111.7 74,111.7 61.7,84.1 61.7,119.7 31.6,119.7 39.5,102.4 39.5,45.3 &#10;&#9;&#9;32.2,26 60.6,26 80,70.7 99.3,26 127.6,26 120.5,45.2 120.5,102.4 128.8,119.7 &#9;"/>
      <polygon class="st0" points="125.3,117.5 100.4,117.5 100.4,73.8 84.5,109.6 75.4,109.6 59.5,73.8 59.5,117.5 35,117.5 41.7,102.9 &#10;&#9;&#9;41.7,44.9 35.4,28.2 59.2,28.2 79.9,76.2 100.7,28.2 124.4,28.2 118.3,44.8 118.3,102.9 125.3,117.5 &#9;" style="fill: rgb(252, 209, 22);"/>
      <polygon class="st1" points="122.8,116 116.7,103.3 116.7,44.5 122.1,29.8 101.8,29.8 79.9,80.2 58.1,29.8 37.7,29.8 43.2,44.6 &#10;&#9;&#9;43.2,103.3 37.5,116 57.9,116 57.9,66.3 76.4,108 83.5,108 102,66.3 102,116 122.8,116 &#9;" style="fill: rgb(206, 17, 38);"/>
      <polygon points="107.3,126.8 102,126.8 106.4,129.6 106.4,132.5 111.8,132.5 107.3,129.5 107.3,126.8 &#9;"/>
      <polygon points="118.3,128.6 122.9,131.6 122.9,132.5 125.2,132.5 123.8,131.5 123.8,126.8 117.4,126.8 117.4,127.3 116.6,126.8 &#10;&#9;&#9;111.9,126.8 111.9,132.5 118.3,132.5 118.3,128.6 &#9;"/>
      <polygon points="96.3,126.8 96.3,129.6 96.3,132.5 101.9,132.5 101.9,126.8 96.3,126.8 &#9;"/>
      <polygon class="st0" points="102,126.8 101.9,126.8 101.9,132.5 106.4,132.5 106.4,129.6 102,126.8 &#9;" style="fill: rgb(252, 209, 22);"/>
      <polygon class="st0" points="107.3,126.8 107.3,129.5 111.8,132.5 111.9,132.5 111.9,126.8 107.3,126.8 &#9;" style="fill: rgb(252, 209, 22);"/>
      <polygon class="st0" points="117.4,126.8 116.6,126.8 117.4,127.3 117.4,126.8 &#9;" style="fill: rgb(252, 209, 22);"/>
      <polygon class="st0" points="118.3,128.6 118.3,132.5 122.9,132.5 122.9,131.6 118.3,128.6 &#9;" style="fill: rgb(252, 209, 22);"/>
      <polygon class="st0" points="125.2,132.5 126.8,132.5 124.8,129.6 126.8,126.8 123.8,126.8 123.8,131.5 125.2,132.5 &#9;" style="fill: rgb(252, 209, 22);"/>
      <path class="st2" d="M64.3,129.6c0-1,1.4-1.7,3.3-1.9c0.1-0.4,0.2-0.7,0.3-1H64l0,2.8H64.3L64.3,129.6z" style="fill: rgb(255, 255, 255);"/>
      <path class="st2" d="M77.7,127.4v-0.7h-6.4c0.1,0.2,0.2,0.4,0.3,0.7H77.7L77.7,127.4z" style="fill: rgb(255, 255, 255);"/>
      <path class="st2" d="M96.1,129.6C96.1,129.6,96.1,129.6,96.1,129.6c0,1-1.4,1.8-3.3,1.9c-0.1,0.4-0.2,0.7-0.3,1h4v-2.9H96.1 L96.1,129.6z" style="fill: rgb(255, 255, 255);"/>
      <path class="st2" d="M82.6,131.8v0.7H89c-0.1-0.2-0.2-0.5-0.3-0.7H82.6L82.6,131.8z" style="fill: rgb(255, 255, 255);"/>
      <path class="st1" d="M71.6,131.8c-0.1,0.3-0.2,0.5-0.3,0.7h6.4v-0.7H71.6L71.6,131.8z" style="fill: rgb(206, 17, 38);"/>
      <path class="st1" d="M64.3,129.6C64.3,129.6,64.3,129.6,64.3,129.6l-0.2,0l0,2.9h3.9c-0.1-0.3-0.3-0.6-0.3-1 C65.7,131.3,64.3,130.6,64.3,129.6L64.3,129.6z" style="fill: rgb(206, 17, 38);"/>
      <path class="st1" d="M96.1,129.6h0.3v-2.8h-3.9c0.1,0.3,0.2,0.6,0.3,1C94.7,127.8,96.1,128.6,96.1,129.6L96.1,129.6z" style="fill: rgb(206, 17, 38);"/>
      <path class="st1" d="M88.8,127.4c0.1-0.2,0.2-0.5,0.3-0.7h-6.5v0.7H88.8L88.8,127.4z" style="fill: rgb(206, 17, 38);"/>
      <path class="st2" d="M64.3,129.6C64.3,129.6,64.3,129.6,64.3,129.6c0,1,1.4,1.8,3.3,1.9c0.1,0.4,0.2,0.7,0.3,1h3.4 c0.1-0.2,0.2-0.5,0.3-0.7h6.1v0.7h2.4v-2.9H64.3L64.3,129.6z" style="fill: rgb(255, 255, 255);"/>
      <path class="st1" d="M96.1,129.6C96.1,129.6,96.1,129.6,96.1,129.6l-15.9,0v2.9h2.4v-0.7h6.2c0.1,0.3,0.2,0.5,0.3,0.7h3.4 c0.1-0.3,0.3-0.6,0.3-1C94.7,131.3,96.1,130.6,96.1,129.6L96.1,129.6z" style="fill: rgb(206, 17, 38);"/>
      <path class="st2" d="M96.1,129.6c0-1-1.4-1.7-3.3-1.9c-0.1-0.4-0.2-0.7-0.3-1H89c-0.1,0.2-0.2,0.4-0.3,0.7h-6.2v-0.7h-2.4v2.8H96.1 L96.1,129.6z" style="fill: rgb(255, 255, 255);"/>
      <path class="st1" d="M64.3,129.6h15.9v-2.8h-2.4v0.7h-6.1c-0.1-0.2-0.2-0.5-0.3-0.7h-3.4c-0.1,0.3-0.2,0.6-0.3,1 C65.7,127.8,64.3,128.6,64.3,129.6L64.3,129.6z" style="fill: rgb(206, 17, 38);"/>
      <polygon points="33.5,126.8 35.5,129.6 33.5,132.5 37.2,132.5 37.2,126.8 33.5,126.8 &#9;"/>
      <polygon points="59.1,126.8 52.7,126.8 52.7,127.3 52,126.8 47.2,126.8 47.2,132.5 53.7,132.5 53.7,128.6 58.2,131.6 58.2,132.5 &#10;&#9;&#9;60.5,132.5 59.1,131.5 59.1,126.8 &#9;"/>
      <polygon points="42.7,126.8 37.4,126.8 41.8,129.6 41.8,132.5 47.2,132.5 42.7,129.5 42.7,126.8 &#9;"/>
      <polygon class="st0" points="37.4,126.8 37.2,126.8 37.2,132.5 41.8,132.5 41.8,129.6 37.4,126.8 &#9;" style="fill: rgb(252, 209, 22);"/>
      <polygon class="st0" points="42.7,126.8 42.7,129.5 47.2,132.5 47.2,132.5 47.2,126.8 42.7,126.8 &#9;" style="fill: rgb(252, 209, 22);"/>
      <polygon class="st0" points="52.7,126.8 52,126.8 52.7,127.3 52.7,126.8 &#9;" style="fill: rgb(252, 209, 22);"/>
      <polygon class="st0" points="53.7,128.6 53.7,132.5 58.2,132.5 58.2,131.6 53.7,128.6 &#9;" style="fill: rgb(252, 209, 22);"/>
      <polygon class="st0" points="64,126.8 59.1,126.8 59.1,131.5 60.5,132.5 64,132.5 64,129.6 64,126.8 &#9;" style="fill: rgb(252, 209, 22);"/>
      <path d="M33.5,132.5h93.3l-2-2.9l2-2.8H33.5l2,2.8L33.5,132.5L33.5,132.5z M129.6,134H30.8l2.6-4.4l-2.6-4.3h98.8l-2.6,4.3 L129.6,134L129.6,134z"/>
      <polygon points="132,130.8 134.6,130.8 134.6,131.2 133.6,131.2 133.6,133.9 133.1,133.9 133.1,131.2 132,131.2 132,130.8 &#9;"/>
      <polygon points="135,130.8 135.8,130.8 136.7,133.3 137.7,130.8 138.5,130.8 138.5,133.9 138,133.9 138,131.3 137.9,131.3 &#10;&#9;&#9;137,133.8 136.5,133.8 135.6,131.3 135.5,131.3 135.5,133.9 135,133.9 135,130.8 &#9;"/>
    </g>
  </g>
</svg>