<?xml version="1.0" encoding="utf-8"?>
<svg viewBox="20 20 140 140" style="enable-background:new 20 20 140 140;" xmlns="http://www.w3.org/2000/svg">
  <defs>
    <style type="text/css">
	.st0{fill:#13294B;}
	.st1{fill:#FF5F05;}
</style>
  </defs>
  <g id="Schools" transform="matrix(0.9999999999999999, 0, 0, 0.9999999999999999, 3.6040139198303223, 9.99572467803955)">
    <g class="st0" style="display: none; fill: rgb(0, 0, 0);">
      <path class="st1" d="M100.86,109.28h12.55v20.91H46.48v-20.91h12.55c2.31,0,4.18-1.87,4.18-4.18V54.9c0-2.31-1.87-4.18-4.18-4.18 H46.48V29.8h66.93v20.91h-12.55c-2.31,0-4.18,1.87-4.18,4.18v50.2C96.68,107.41,98.55,109.28,100.86,109.28L100.86,109.28z M117.59,54.9V25.62H42.3V54.9h16.73v50.2H42.3v29.28h75.29V105.1h-16.73V54.9H117.59L117.59,54.9z" style="fill: rgb(19, 41, 75);"/>
      <path class="st2" d="M100.86,50.72h12.55V29.8H46.48v20.91h12.55c2.31,0,4.18,1.87,4.18,4.18v50.2c0,2.31-1.87,4.18-4.18,4.18 H46.48v20.91h66.93v-20.91h-12.55c-2.31,0-4.18-1.87-4.18-4.18V54.9C96.68,52.59,98.55,50.72,100.86,50.72L100.86,50.72z" style="fill: rgb(232, 74, 39);"/>
      <path class="st1" d="M122.7,130.8h-1.3v3.35h-0.6v-3.35h-1.3v-0.6h3.2V130.8L122.7,130.8z M127.7,134.15h-0.6v-3.35h-0.02 l-1.35,3.35h-0.37l-1.32-3.35h-0.02v3.35h-0.6v-3.96h0.99l1.14,2.79l1.18-2.79h0.98V134.15L127.7,134.15z" style="fill: rgb(19, 41, 75);"/>
    </g>
    <g class="st0" style="display: none; fill: rgb(0, 0, 0);">
      <polygon class="st3" points="95.64,38.26 95.64,46.83 101.56,46.83 101.56,94.53 89.03,94.53 89.03,31.7 95.69,31.7 95.69,23.13 &#10;&#9;&#9;&#9;64.43,23.13 64.43,31.7 71.1,31.7 71.1,94.53 58.42,94.53 58.42,46.83 64.34,46.83 64.34,38.26 34.94,38.26 34.94,46.83 &#10;&#9;&#9;&#9;41.58,46.83 41.58,102.07 52.39,113.1 71.1,113.1 71.1,125.83 64.46,125.83 64.46,136.87 95.67,136.87 95.67,125.83 89.03,125.83 &#10;&#9;&#9;&#9;89.03,113.1 107.59,113.1 118.4,102.07 118.4,46.83 125.06,46.83 125.06,38.26 95.64,38.26 &#9;&#9;" style="fill: rgb(159, 5, 51);"/>
      <path class="st3" d="M101.9,136.1c-1.55,0-2.8-1.25-2.8-2.8c0-1.55,1.25-2.8,2.8-2.8c1.55,0,2.81,1.25,2.81,2.8 C104.71,134.85,103.45,136.1,101.9,136.1L101.9,136.1z M101.9,129.72c-1.97,0-3.57,1.6-3.57,3.57c0,1.97,1.6,3.57,3.57,3.57 c1.97,0,3.57-1.6,3.57-3.57C105.47,131.32,103.87,129.72,101.9,129.72L101.9,129.72z" style="fill: rgb(159, 5, 51);"/>
      <path class="st3" d="M102.16,132.91h-0.96v-0.89h0.96c0.25,0,0.45,0.2,0.45,0.45C102.6,132.71,102.4,132.91,102.16,132.91 L102.16,132.91z M103.37,132.47c0-0.67-0.54-1.21-1.21-1.21h-1.72v4.08h0.76v-1.66h0.55l0.77,1.66h0.85l-0.81-1.73 C103.03,133.44,103.37,132.99,103.37,132.47L103.37,132.47z" style="fill: rgb(159, 5, 51);"/>
    </g>
    <g class="st0" style="display: none; fill: rgb(0, 0, 0);">
      <polygon class="st6" points="129.08,119.73 98.53,119.73 98.53,84.12 86.28,111.74 74.31,111.74 62.05,84.11 62.05,119.73 &#10;&#9;&#9;&#9;31.92,119.73 39.79,102.45 39.8,45.27 32.57,26.01 60.94,26.01 80.28,70.71 99.63,26.01 127.89,26.01 120.78,45.17 120.78,102.43 &#10;&#9;&#9;&#9;129.08,119.73 &#9;&#9;"/>
      <polygon class="st7" points="125.61,117.55 100.72,117.55 100.72,73.79 84.86,109.56 75.73,109.56 59.86,73.79 59.86,117.55 &#10;&#9;&#9;&#9;35.32,117.55 41.98,102.93 41.98,44.87 35.72,28.19 59.5,28.19 80.28,76.22 101.07,28.19 124.74,28.19 118.59,44.78 &#10;&#9;&#9;&#9;118.59,102.93 125.61,117.55 &#9;&#9;" style="fill: rgb(255, 213, 32);"/>
      <polygon class="st8" points="123.08,115.95 117,103.29 117,44.49 122.46,29.78 102.11,29.78 80.28,80.22 58.46,29.78 38.02,29.78 &#10;&#9;&#9;&#9;43.58,44.59 43.57,103.27 37.79,115.95 58.27,115.95 58.27,66.28 76.76,107.97 83.82,107.97 102.31,66.29 102.31,115.95 &#10;&#9;&#9;&#9;123.08,115.95 &#9;&#9;" style="fill: rgb(228, 29, 58);"/>
      <polygon class="st6" points="107.68,126.76 102.36,126.76 106.75,129.6 106.75,132.48 112.14,132.48 107.68,129.48 107.68,126.76 &#10;&#9;&#9;&#9;&#9;&#9;"/>
      <polygon class="st6" points="118.64,128.59 123.19,131.59 123.19,132.48 125.51,132.48 124.12,131.54 124.12,126.76 &#10;&#9;&#9;&#9;117.72,126.76 117.72,127.27 116.95,126.76 112.23,126.76 112.23,132.48 118.64,132.48 118.64,128.59 &#9;&#9;"/>
      <polygon class="st6" points="96.68,126.76 96.68,129.6 96.68,132.48 102.2,132.48 102.2,126.76 96.68,126.76 &#9;&#9;"/>
      <polygon class="st7" points="102.36,126.76 102.2,126.76 102.2,132.48 106.75,132.48 106.75,129.6 102.36,126.76 &#9;&#9;" style="fill: rgb(255, 213, 32);"/>
      <polygon class="st7" points="107.68,126.76 107.68,129.48 112.14,132.48 112.23,132.48 112.23,126.76 107.68,126.76 &#9;&#9;" style="fill: rgb(255, 213, 32);"/>
      <polygon class="st7" points="117.72,126.76 116.95,126.76 117.72,127.27 117.72,126.76 &#9;&#9;" style="fill: rgb(255, 213, 32);"/>
      <polygon class="st7" points="118.64,128.59 118.64,132.48 123.19,132.48 123.19,131.59 118.64,128.59 &#9;&#9;" style="fill: rgb(255, 213, 32);"/>
      <polygon class="st7" points="125.51,132.48 127.15,132.48 125.16,129.57 127.13,126.76 124.12,126.76 124.12,131.54 &#10;&#9;&#9;&#9;125.51,132.48 &#9;&#9;" style="fill: rgb(255, 213, 32);"/>
      <path class="st9" d="M64.59,129.6c0-0.96,1.41-1.75,3.35-1.86c0.08-0.35,0.18-0.68,0.32-0.97h-3.89l0,2.83H64.59L64.59,129.6z" style="fill: rgb(255, 255, 255);"/>
      <path class="st9" d="M78.05,127.44v-0.68h-6.4c0.1,0.21,0.18,0.43,0.25,0.68H78.05L78.05,127.44z" style="fill: rgb(255, 255, 255);"/>
      <path class="st9" d="M96.41,129.6C96.41,129.6,96.41,129.6,96.41,129.6c0,0.97-1.4,1.75-3.34,1.87c-0.08,0.37-0.2,0.71-0.34,1.01 h3.95v-2.88H96.41L96.41,129.6z" style="fill: rgb(255, 255, 255);"/>
      <path class="st9" d="M82.88,131.77v0.71h6.49c-0.1-0.22-0.2-0.45-0.27-0.71H82.88L82.88,131.77z" style="fill: rgb(255, 255, 255);"/>
      <path class="st8" d="M71.9,131.77c-0.07,0.26-0.17,0.49-0.27,0.71h6.42v-0.71H71.9L71.9,131.77z" style="fill: rgb(228, 29, 58);"/>
      <path class="st8" d="M64.59,129.6C64.59,129.6,64.59,129.6,64.59,129.6l-0.22-0.01l0,2.88h3.91c-0.14-0.3-0.26-0.64-0.34-1.01 C66,131.35,64.59,130.56,64.59,129.6L64.59,129.6z" style="fill: rgb(228, 29, 58);"/>
      <path class="st8" d="M96.41,129.6h0.27v-2.83h-3.93c0.14,0.29,0.24,0.62,0.32,0.97C95,127.85,96.4,128.64,96.41,129.6L96.41,129.6 z" style="fill: rgb(228, 29, 58);"/>
      <path class="st8" d="M89.1,127.44c0.07-0.24,0.15-0.47,0.25-0.68h-6.47v0.68H89.1L89.1,127.44z" style="fill: rgb(228, 29, 58);"/>
      <path class="st9" d="M64.59,129.6C64.59,129.6,64.59,129.6,64.59,129.6c0,0.97,1.4,1.75,3.35,1.87c0.08,0.37,0.19,0.71,0.34,1.01 h3.36c0.1-0.22,0.2-0.45,0.27-0.71h6.15v0.71h2.42v-2.88H64.59L64.59,129.6z" style="fill: rgb(255, 255, 255);"/>
      <path class="st8" d="M96.41,129.6C96.41,129.6,96.41,129.6,96.41,129.6l-15.94-0.01v2.88h2.41v-0.71h6.22 c0.07,0.26,0.16,0.49,0.27,0.71h3.36c0.14-0.3,0.26-0.64,0.34-1.01C95.01,131.35,96.41,130.56,96.41,129.6L96.41,129.6z" style="fill: rgb(228, 29, 58);"/>
      <path class="st9" d="M96.41,129.6c-0.01-0.95-1.41-1.75-3.34-1.86c-0.08-0.35-0.19-0.68-0.32-0.97h-3.39 c-0.1,0.21-0.19,0.43-0.25,0.68h-6.22v-0.68h-2.41v2.83H96.41L96.41,129.6z" style="fill: rgb(255, 255, 255);"/>
      <path class="st8" d="M64.59,129.6h15.87v-2.83h-2.42v0.68H71.9c-0.07-0.24-0.16-0.47-0.25-0.68h-3.39 c-0.14,0.29-0.25,0.62-0.32,0.97C66,127.85,64.6,128.64,64.59,129.6L64.59,129.6z" style="fill: rgb(228, 29, 58);"/>
      <polygon class="st6" points="33.88,126.76 35.85,129.57 33.86,132.48 37.53,132.48 37.53,126.76 33.88,126.76 &#9;&#9;"/>
      <polygon class="st6" points="59.47,126.76 53.07,126.76 53.07,127.27 52.29,126.76 47.57,126.76 47.57,132.48 53.98,132.48 &#10;&#9;&#9;&#9;53.98,128.59 58.53,131.59 58.53,132.48 60.87,132.48 59.47,131.54 59.47,126.76 &#9;&#9;"/>
      <polygon class="st6" points="43.02,126.76 37.7,126.76 42.08,129.6 42.08,132.48 47.48,132.48 43.02,129.48 43.02,126.76 &#9;&#9;"/>
      <polygon class="st7" points="37.7,126.76 37.53,126.76 37.53,132.48 42.08,132.48 42.08,129.6 37.7,126.76 &#9;&#9;" style="fill: rgb(255, 213, 32);"/>
      <polygon class="st7" points="43.02,126.76 43.02,129.48 47.48,132.48 47.57,132.48 47.57,126.76 43.02,126.76 &#9;&#9;" style="fill: rgb(255, 213, 32);"/>
      <polygon class="st7" points="53.07,126.76 52.29,126.76 53.07,127.27 53.07,126.76 &#9;&#9;" style="fill: rgb(255, 213, 32);"/>
      <polygon class="st7" points="53.98,128.59 53.98,132.48 58.53,132.48 58.53,131.59 53.98,128.59 &#9;&#9;" style="fill: rgb(255, 213, 32);"/>
      <polygon class="st7" points="64.37,126.76 59.47,126.76 59.47,131.54 60.87,132.48 64.37,132.48 64.37,129.6 64.37,126.76 &#9;&#9;" style="fill: rgb(255, 213, 32);"/>
      <path class="st6" d="M33.86,132.48h93.29l-1.99-2.91l1.97-2.81H33.88l1.97,2.8L33.86,132.48L33.86,132.48z M129.92,133.99H31.08 l2.61-4.42l-2.6-4.33h98.84l-2.61,4.33L129.92,133.99L129.92,133.99z"/>
      <polygon class="st6" points="132.34,130.8 134.91,130.8 134.91,131.22 133.88,131.22 133.88,133.92 133.38,133.92 133.38,131.22 &#10;&#9;&#9;&#9;132.34,131.22 132.34,130.8 &#9;&#9;"/>
      <polygon class="st6" points="135.31,130.8 136.14,130.8 137.06,133.3 137.99,130.8 138.81,130.8 138.81,133.92 138.31,133.92 &#10;&#9;&#9;&#9;138.31,131.33 138.24,131.33 137.32,133.81 136.79,133.81 135.88,131.33 135.8,131.33 135.8,133.92 135.31,133.92 135.31,130.8 &#9;&#9;&#10;&#9;&#9;&#9;"/>
    </g>
    <g id="g-3" transform="matrix(1, 0, 0, 1, -11.371323, 1.803556)"/>
    <g id="g-4" transform="matrix(1, 0, 0, 1, 84.163841, 9.995275)"/>
    <g id="g-5" transform="matrix(1.16986, 0, 0, 1.16986, -6.823583, -12.77072)" style="">
      <g>
        <path class="st0" d="M103.03,37.54L79.92,69.48L56.85,37.54H21.27v25.1h8.81v34.25h-8.81v25.1h45.37v-25.1h-9.4V77.23l22.56,31.02 l22.84-31.04v19.68h-9.4v25.1h45.37v-25.1h-8.81V62.64h8.81v-25.1H103.03L103.03,37.54z M55.35,71.42v27.35h9.4v21.32h-41.6V98.78 h8.82V60.75h-8.82V39.43h32.73l24.03,33.28l24.07-33.28h32.73v21.32h-8.81v38.03h8.81v21.32h-41.6V98.78h9.4V71.45l-24.72,33.6 L55.35,71.42L55.35,71.42z" style="fill: rgb(0, 39, 76);"/>
        <polygon class="st1" points="136.72,60.75 136.72,39.43 103.99,39.43 79.92,72.71 55.89,39.43 23.16,39.43 23.16,60.75 &#10;&#9;&#9;&#9;31.97,60.75 31.97,98.78 23.16,98.78 23.16,120.1 64.75,120.1 64.75,98.78 55.35,98.78 55.35,71.42 79.81,105.05 104.53,71.45 &#10;&#9;&#9;&#9;104.53,98.78 95.12,98.78 95.12,120.1 136.72,120.1 136.72,98.78 127.91,98.78 127.91,60.75 136.72,60.75 &#9;&#9;" style="fill: rgb(255, 203, 5);"/>
        <path class="st0" d="M142.97,119.49v-0.7h0.44c0.24,0,0.56,0.02,0.56,0.32c0,0.32-0.16,0.38-0.44,0.38H142.97L142.97,119.49z M142.97,119.99h0.29l0.67,1.22h0.74l-0.75-1.27c0.39-0.03,0.7-0.22,0.7-0.76c0-0.66-0.45-0.88-1.2-0.88h-1.09v2.91h0.62V119.99 L142.97,119.99z M146.14,119.76c0-1.71-1.28-2.72-2.72-2.72c-1.44,0-2.71,1-2.71,2.72c0,1.71,1.28,2.71,2.71,2.71 C144.86,122.46,146.14,121.47,146.14,119.76L146.14,119.76z M145.36,119.76c0,1.25-0.89,2.08-1.94,2.08v-0.01 c-1.07,0.01-1.93-0.83-1.93-2.08c0-1.24,0.86-2.08,1.93-2.08C144.47,117.67,145.36,118.51,145.36,119.76L145.36,119.76z" style="fill: rgb(0, 39, 76);"/>
      </g>
      <g class="st2" style="display: none;">
        <path class="st3" d="M100.86,109.28h12.55v20.91H46.48v-20.91h12.55c2.31,0,4.18-1.87,4.18-4.18V54.9c0-2.31-1.87-4.18-4.18-4.18 H46.48V29.8h66.93v20.91h-12.55c-2.31,0-4.18,1.87-4.18,4.18v50.2C96.68,107.41,98.55,109.28,100.86,109.28L100.86,109.28z M117.59,54.9V25.62H42.3V54.9h16.73v50.2H42.3v29.28h75.29V105.1h-16.73V54.9H117.59L117.59,54.9z" style="fill: rgb(19, 41, 75);"/>
        <path class="st4" d="M100.86,50.72h12.55V29.8H46.48v20.91h12.55c2.31,0,4.18,1.87,4.18,4.18v50.2c0,2.31-1.87,4.18-4.18,4.18 H46.48v20.91h66.93v-20.91h-12.55c-2.31,0-4.18-1.87-4.18-4.18V54.9C96.68,52.59,98.55,50.72,100.86,50.72L100.86,50.72z" style="fill: rgb(232, 74, 39);"/>
        <path class="st3" d="M122.7,130.8h-1.3v3.35h-0.6v-3.35h-1.3v-0.6h3.2V130.8L122.7,130.8z M127.7,134.15h-0.6v-3.35h-0.02 l-1.35,3.35h-0.37l-1.32-3.35h-0.02v3.35h-0.6v-3.96h0.99l1.14,2.79l1.18-2.79h0.98V134.15L127.7,134.15z" style="fill: rgb(19, 41, 75);"/>
      </g>
      <g class="st2" style="display: none;">
        <polygon class="st5" points="95.64,38.26 95.64,46.83 101.56,46.83 101.56,94.53 89.03,94.53 89.03,31.7 95.69,31.7 95.69,23.13 &#10;&#9;&#9;&#9;64.43,23.13 64.43,31.7 71.1,31.7 71.1,94.53 58.42,94.53 58.42,46.83 64.34,46.83 64.34,38.26 34.94,38.26 34.94,46.83 &#10;&#9;&#9;&#9;41.58,46.83 41.58,102.07 52.39,113.1 71.1,113.1 71.1,125.83 64.46,125.83 64.46,136.87 95.67,136.87 95.67,125.83 89.03,125.83 &#10;&#9;&#9;&#9;89.03,113.1 107.59,113.1 118.4,102.07 118.4,46.83 125.06,46.83 125.06,38.26 95.64,38.26 &#9;&#9;" style="fill: rgb(159, 5, 51);"/>
        <path class="st5" d="M101.9,136.1c-1.55,0-2.8-1.25-2.8-2.8c0-1.55,1.25-2.8,2.8-2.8c1.55,0,2.81,1.25,2.81,2.8 C104.71,134.85,103.45,136.1,101.9,136.1L101.9,136.1z M101.9,129.72c-1.97,0-3.57,1.6-3.57,3.57c0,1.97,1.6,3.57,3.57,3.57 c1.97,0,3.57-1.6,3.57-3.57C105.47,131.32,103.87,129.72,101.9,129.72L101.9,129.72z" style="fill: rgb(159, 5, 51);"/>
        <path class="st5" d="M102.16,132.91h-0.96v-0.89h0.96c0.25,0,0.45,0.2,0.45,0.45C102.6,132.71,102.4,132.91,102.16,132.91 L102.16,132.91z M103.37,132.47c0-0.67-0.54-1.21-1.21-1.21h-1.72v4.08h0.76v-1.66h0.55l0.77,1.66h0.85l-0.81-1.73 C103.03,133.44,103.37,132.99,103.37,132.47L103.37,132.47z" style="fill: rgb(159, 5, 51);"/>
      </g>
      <g class="st2" style="display: none;">
        <path class="st6" d="M104.27,95.61c5.02-9.4,19.91-22.38,25.75-24.38c14.13,5.19,18.95,30.48,3.55,40.61 C136,94.56,113.61,89.88,104.27,95.61z" style="fill: rgb(35, 31, 32);"/>
        <path class="st6" d="M24.6,72.47c-2.08,0.85-5.45,3.5-7.68,6.03c-0.22-13.77,15.11-40.83,61.68-38.19 C96.62,41.33,109.3,46.16,120,56.5c2.02,1.95,4.26,4.89,4.6,8.9c0.41,4.97-3.93,10.19-10.14,8.92c-3.31-0.68-5.28-3.16-7.87-7.31 c-1.61-2.57-3.85-4.03-5.88-4.37c1.11,1.82,1.71,3.98,1.61,6.27c-0.28,6.09-5.44,10.81-11.54,10.53 c-6.1-0.28-10.81-5.44-10.53-11.54c0.08-1.83,1.09-4.13,1.95-5.62c-18.13,2.8-41.33,21.9-56,50.01 c-1.66-8.15,1.49-15.93,1.49-15.93c-1.89,0.8-3.64,2.42-5.85,5.13c-0.2-5.94-0.14-10.24,3.31-16.81 c-2.31,0.95-4.09,2.17-6.37,5.04C18.8,83.57,20.52,78.38,24.6,72.47z" style="fill: rgb(35, 31, 32);"/>
        <path class="st6" d="M102.25,102.36c1.61,0.14,7.41,1.16,11.32,2.35c-1.4,4.15,1.71,8.84,8.98,7.53c-2.27,1.7-5.13,2.69-8.19,2.55 C107.64,114.48,102.37,109,102.25,102.36z" style="fill: rgb(35, 31, 32);"/>
        <path class="st6" d="M66.53,75.08c4.07-2.96,6.99-3.82,6.99-3.82c1.32,8.25,8.26,14.73,16.94,15.12c2.8,0.13,6.5-0.61,8.91-1.64 c-0.39,19.02-18.03,37.74-34.59,34.84c-8.76-1.54-11.77-7.54-11.44-12.87c0.36-5.94,5.39-9.94,11.87-12.58 c7.67-3.12,10.24-7.62,8.71-10.94c-1.53-3.32-6.45-5.21-12.47-2.53C61.46,80.65,61.97,78.39,66.53,75.08z" style="fill: rgb(35, 31, 32);"/>
        <path class="st7" d="M92.09,115.36v-1.09h0.93c0.42,0,0.97,0,0.97,0.44c0,0.54-0.27,0.65-0.75,0.65H92.09z M93.72,116.01 c0.76-0.05,1.17-0.38,1.17-1.17c0-1.14-0.68-1.32-1.67-1.32h-2.09v4.31h0.96v-1.82h0.67l0.96,1.82h1.05L93.72,116.01z M92.78,118.89c-1.81,0-3.16-1.32-3.16-3.16c0-1.86,1.35-3.18,3.16-3.18c1.78,0,3.16,1.32,3.16,3.18 C95.94,117.57,94.56,118.89,92.78,118.89z M92.78,119.87c2.3,0,4.14-1.85,4.14-4.14c0-2.31-1.84-4.16-4.14-4.16 c-2.31,0-4.14,1.85-4.14,4.16C88.64,118.02,90.47,119.87,92.78,119.87z" style="clip-rule: evenodd; fill: rgb(35, 31, 32); fill-rule: evenodd;"/>
      </g>
      <g class="st2" style="display: none;">
        <polygon class="st8" points="128.75,119.73 98.2,119.73 98.2,84.12 85.95,111.74 73.98,111.74 61.72,84.11 61.72,119.73 &#10;&#9;&#9;&#9;31.59,119.73 39.46,102.45 39.47,45.27 32.24,26.01 60.61,26.01 79.95,70.71 99.3,26.01 127.56,26.01 120.45,45.17 120.45,102.43 &#10;&#9;&#9;&#9;128.75,119.73 &#9;&#9;"/>
        <polygon class="st9" points="125.28,117.55 100.39,117.55 100.39,73.79 84.53,109.56 75.4,109.56 59.53,73.79 59.53,117.55 &#10;&#9;&#9;&#9;34.99,117.55 41.65,102.93 41.66,44.87 35.4,28.19 59.18,28.19 79.95,76.22 100.74,28.19 124.41,28.19 118.27,44.78 &#10;&#9;&#9;&#9;118.27,102.93 125.28,117.55 &#9;&#9;" style="fill: rgb(255, 213, 32);"/>
        <polygon class="st10" points="122.75,115.95 116.68,103.29 116.68,44.49 122.13,29.78 101.78,29.78 79.95,80.22 58.13,29.78 &#10;&#9;&#9;&#9;37.69,29.78 43.25,44.59 43.24,103.27 37.46,115.95 57.94,115.95 57.94,66.28 76.43,107.97 83.49,107.97 101.98,66.29 &#10;&#9;&#9;&#9;101.98,115.95 122.75,115.95 &#9;&#9;" style="fill: rgb(228, 29, 58);"/>
        <polygon class="st8" points="107.35,126.76 102.03,126.76 106.42,129.6 106.42,132.48 111.81,132.48 107.35,129.48 107.35,126.76 &#10;&#9;&#9;&#9;&#9;&#9;"/>
        <polygon class="st8" points="118.31,128.59 122.86,131.59 122.86,132.48 125.19,132.48 123.79,131.54 123.79,126.76 &#10;&#9;&#9;&#9;117.39,126.76 117.39,127.27 116.62,126.76 111.9,126.76 111.9,132.48 118.31,132.48 118.31,128.59 &#9;&#9;"/>
        <polygon class="st8" points="96.35,126.76 96.35,129.6 96.35,132.48 101.87,132.48 101.87,126.76 96.35,126.76 &#9;&#9;"/>
        <polygon class="st9" points="102.03,126.76 101.87,126.76 101.87,132.48 106.42,132.48 106.42,129.6 102.03,126.76 &#9;&#9;" style="fill: rgb(255, 213, 32);"/>
        <polygon class="st9" points="107.35,126.76 107.35,129.48 111.81,132.48 111.9,132.48 111.9,126.76 107.35,126.76 &#9;&#9;" style="fill: rgb(255, 213, 32);"/>
        <polygon class="st9" points="117.39,126.76 116.62,126.76 117.39,127.27 117.39,126.76 &#9;&#9;" style="fill: rgb(255, 213, 32);"/>
        <polygon class="st9" points="118.31,128.59 118.31,132.48 122.86,132.48 122.86,131.59 118.31,128.59 &#9;&#9;" style="fill: rgb(255, 213, 32);"/>
        <polygon class="st9" points="125.19,132.48 126.82,132.48 124.83,129.57 126.8,126.76 123.79,126.76 123.79,131.54 125.19,132.48 &#10;&#9;&#9;&#9;&#9;&#9;" style="fill: rgb(255, 213, 32);"/>
        <path class="st11" d="M64.27,129.6c0-0.96,1.41-1.75,3.35-1.86c0.08-0.35,0.18-0.68,0.32-0.97h-3.89l0,2.83H64.27L64.27,129.6z" style="fill: rgb(255, 255, 255);"/>
        <path class="st11" d="M77.72,127.44v-0.68h-6.4c0.1,0.21,0.18,0.43,0.25,0.68H77.72L77.72,127.44z" style="fill: rgb(255, 255, 255);"/>
        <path class="st11" d="M96.08,129.6C96.08,129.6,96.08,129.6,96.08,129.6c0,0.97-1.4,1.75-3.34,1.87c-0.08,0.37-0.2,0.71-0.34,1.01 h3.95v-2.88H96.08L96.08,129.6z" style="fill: rgb(255, 255, 255);"/>
        <path class="st11" d="M82.55,131.77v0.71h6.49c-0.1-0.22-0.2-0.45-0.27-0.71H82.55L82.55,131.77z" style="fill: rgb(255, 255, 255);"/>
        <path class="st10" d="M71.57,131.77c-0.07,0.26-0.17,0.49-0.27,0.71h6.42v-0.71H71.57L71.57,131.77z" style="fill: rgb(228, 29, 58);"/>
        <path class="st10" d="M64.26,129.6C64.26,129.6,64.27,129.6,64.26,129.6l-0.22-0.01l0,2.88h3.91c-0.14-0.3-0.26-0.64-0.34-1.01 C65.67,131.35,64.26,130.56,64.26,129.6L64.26,129.6z" style="fill: rgb(228, 29, 58);"/>
        <path class="st10" d="M96.08,129.6h0.27v-2.83h-3.93c0.14,0.29,0.24,0.62,0.32,0.97C94.67,127.85,96.07,128.64,96.08,129.6 L96.08,129.6z" style="fill: rgb(228, 29, 58);"/>
        <path class="st10" d="M88.77,127.44c0.07-0.24,0.15-0.47,0.25-0.68h-6.47v0.68H88.77L88.77,127.44z" style="fill: rgb(228, 29, 58);"/>
        <path class="st11" d="M64.27,129.6C64.27,129.6,64.26,129.6,64.27,129.6c0,0.97,1.4,1.75,3.35,1.87c0.08,0.37,0.19,0.71,0.34,1.01 h3.36c0.1-0.22,0.2-0.45,0.27-0.71h6.15v0.71h2.42v-2.88H64.27L64.27,129.6z" style="fill: rgb(255, 255, 255);"/>
        <path class="st10" d="M96.08,129.6C96.08,129.6,96.08,129.6,96.08,129.6l-15.94-0.01v2.88h2.41v-0.71h6.22 c0.07,0.26,0.16,0.49,0.27,0.71h3.36c0.14-0.3,0.26-0.64,0.34-1.01C94.68,131.35,96.08,130.56,96.08,129.6L96.08,129.6z" style="fill: rgb(228, 29, 58);"/>
        <path class="st11" d="M96.08,129.6c-0.01-0.95-1.41-1.75-3.34-1.86c-0.08-0.35-0.19-0.68-0.32-0.97h-3.39 c-0.1,0.21-0.19,0.43-0.25,0.68h-6.22v-0.68h-2.41v2.83H96.08L96.08,129.6z" style="fill: rgb(255, 255, 255);"/>
        <path class="st10" d="M64.27,129.6h15.87v-2.83h-2.42v0.68h-6.15c-0.07-0.24-0.16-0.47-0.25-0.68h-3.39 c-0.14,0.29-0.25,0.62-0.32,0.97C65.67,127.85,64.27,128.64,64.27,129.6L64.27,129.6z" style="fill: rgb(228, 29, 58);"/>
        <polygon class="st8" points="33.55,126.76 35.52,129.57 33.53,132.48 37.2,132.48 37.2,126.76 33.55,126.76 &#9;&#9;"/>
        <polygon class="st8" points="59.14,126.76 52.74,126.76 52.74,127.27 51.96,126.76 47.24,126.76 47.24,132.48 53.65,132.48 &#10;&#9;&#9;&#9;53.65,128.59 58.21,131.59 58.21,132.48 60.54,132.48 59.14,131.54 59.14,126.76 &#9;&#9;"/>
        <polygon class="st8" points="42.69,126.76 37.37,126.76 41.76,129.6 41.76,132.48 47.15,132.48 42.69,129.48 42.69,126.76 &#9;&#9;"/>
        <polygon class="st9" points="37.37,126.76 37.2,126.76 37.2,132.48 41.76,132.48 41.76,129.6 37.37,126.76 &#9;&#9;" style="fill: rgb(255, 213, 32);"/>
        <polygon class="st9" points="42.69,126.76 42.69,129.48 47.15,132.48 47.24,132.48 47.24,126.76 42.69,126.76 &#9;&#9;" style="fill: rgb(255, 213, 32);"/>
        <polygon class="st9" points="52.74,126.76 51.96,126.76 52.74,127.27 52.74,126.76 &#9;&#9;" style="fill: rgb(255, 213, 32);"/>
        <polygon class="st9" points="53.65,128.59 53.65,132.48 58.21,132.48 58.21,131.59 53.65,128.59 &#9;&#9;" style="fill: rgb(255, 213, 32);"/>
        <polygon class="st9" points="64.04,126.76 59.14,126.76 59.14,131.54 60.54,132.48 64.04,132.48 64.04,129.6 64.04,126.76 &#9;&#9;" style="fill: rgb(255, 213, 32);"/>
        <path class="st8" d="M33.53,132.48h93.29l-1.99-2.91l1.97-2.81H33.55l1.97,2.8L33.53,132.48L33.53,132.48z M129.59,133.99H30.75 l2.61-4.42l-2.6-4.33h98.84l-2.61,4.33L129.59,133.99L129.59,133.99z"/>
        <polygon class="st8" points="132.01,130.8 134.58,130.8 134.58,131.22 133.55,131.22 133.55,133.92 133.05,133.92 133.05,131.22 &#10;&#9;&#9;&#9;132.01,131.22 132.01,130.8 &#9;&#9;"/>
        <polygon class="st8" points="134.98,130.8 135.81,130.8 136.73,133.3 137.66,130.8 138.48,130.8 138.48,133.92 137.99,133.92 &#10;&#9;&#9;&#9;137.99,131.33 137.91,131.33 136.99,133.81 136.47,133.81 135.55,131.33 135.48,131.33 135.48,133.92 134.98,133.92 134.98,130.8 &#10;&#9;&#9;&#9;&#9;&#9;"/>
      </g>
    </g>
  </g>
</svg>