<?xml version="1.0" encoding="utf-8"?>
<svg viewBox="20 20 140 140" style="enable-background:new 20 20 140 140;" xmlns="http://www.w3.org/2000/svg">
  <defs>
    <style type="text/css">
	.st0{fill:#13294B;}
	.st1{fill:#FF5F05;}
</style>
  </defs>
  <g id="g-3" transform="matrix(0.9999999999999999, 0, 0, 0.9999999999999999, 24.70265769958496, 21.507232666015625)"/>
  <g id="g-5" transform="matrix(0.9999999999999999, 0, 0, 0.9999999999999999, 22.567710876464844, 24.59016227722168)"/>
  <g id="g-6" transform="matrix(0.9999999999999999, 0, 0, 0.9999999999999999, 33.770503997802734, 22.950822830200195)"/>
  <g id="g-7" transform="matrix(0.9999999999999999, 0, 0, 0.9999999999999999, 21.80329132080078, 24.262292861938477)"/>
  <g id="g-8" transform="matrix(0.9999999999999999, 0, 0, 0.9999999999999999, 20.980606079101562, 31.300701141357422)"/>
  <g id="Schools" transform="matrix(1.130094051361084, 0, 0, 1.130094051361084, -0.4928940236568451, 0.6303690075874329)" style="">
    <g class="st0" style="display: none; fill: rgb(0, 0, 0);">
      <path class="st1" d="M100.86,109.28h12.55v20.91H46.48v-20.91h12.55c2.31,0,4.18-1.87,4.18-4.18V54.9c0-2.31-1.87-4.18-4.18-4.18 H46.48V29.8h66.93v20.91h-12.55c-2.31,0-4.18,1.87-4.18,4.18v50.2C96.68,107.41,98.55,109.28,100.86,109.28L100.86,109.28z M117.59,54.9V25.62H42.3V54.9h16.73v50.2H42.3v29.28h75.29V105.1h-16.73V54.9H117.59L117.59,54.9z" style="fill: rgb(19, 41, 75);"/>
      <path class="st2" d="M100.86,50.72h12.55V29.8H46.48v20.91h12.55c2.31,0,4.18,1.87,4.18,4.18v50.2c0,2.31-1.87,4.18-4.18,4.18 H46.48v20.91h66.93v-20.91h-12.55c-2.31,0-4.18-1.87-4.18-4.18V54.9C96.68,52.59,98.55,50.72,100.86,50.72L100.86,50.72z" style="fill: rgb(232, 74, 39);"/>
      <path class="st1" d="M122.7,130.8h-1.3v3.35h-0.6v-3.35h-1.3v-0.6h3.2V130.8L122.7,130.8z M127.7,134.15h-0.6v-3.35h-0.02 l-1.35,3.35h-0.37l-1.32-3.35h-0.02v3.35h-0.6v-3.96h0.99l1.14,2.79l1.18-2.79h0.98V134.15L127.7,134.15z" style="fill: rgb(19, 41, 75);"/>
    </g>
    <g class="st0" style="display: none; fill: rgb(0, 0, 0);">
      <polygon class="st3" points="95.64,38.26 95.64,46.83 101.56,46.83 101.56,94.53 89.03,94.53 89.03,31.7 95.69,31.7 95.69,23.13 &#10;&#9;&#9;&#9;64.43,23.13 64.43,31.7 71.1,31.7 71.1,94.53 58.42,94.53 58.42,46.83 64.34,46.83 64.34,38.26 34.94,38.26 34.94,46.83 &#10;&#9;&#9;&#9;41.58,46.83 41.58,102.07 52.39,113.1 71.1,113.1 71.1,125.83 64.46,125.83 64.46,136.87 95.67,136.87 95.67,125.83 89.03,125.83 &#10;&#9;&#9;&#9;89.03,113.1 107.59,113.1 118.4,102.07 118.4,46.83 125.06,46.83 125.06,38.26 95.64,38.26 &#9;&#9;" style="fill: rgb(159, 5, 51);"/>
      <path class="st3" d="M101.9,136.1c-1.55,0-2.8-1.25-2.8-2.8c0-1.55,1.25-2.8,2.8-2.8c1.55,0,2.81,1.25,2.81,2.8 C104.71,134.85,103.45,136.1,101.9,136.1L101.9,136.1z M101.9,129.72c-1.97,0-3.57,1.6-3.57,3.57c0,1.97,1.6,3.57,3.57,3.57 c1.97,0,3.57-1.6,3.57-3.57C105.47,131.32,103.87,129.72,101.9,129.72L101.9,129.72z" style="fill: rgb(159, 5, 51);"/>
      <path class="st3" d="M102.16,132.91h-0.96v-0.89h0.96c0.25,0,0.45,0.2,0.45,0.45C102.6,132.71,102.4,132.91,102.16,132.91 L102.16,132.91z M103.37,132.47c0-0.67-0.54-1.21-1.21-1.21h-1.72v4.08h0.76v-1.66h0.55l0.77,1.66h0.85l-0.81-1.73 C103.03,133.44,103.37,132.99,103.37,132.47L103.37,132.47z" style="fill: rgb(159, 5, 51);"/>
    </g>
    <g class="st0" style="display: none; fill: rgb(0, 0, 0);">
      <path class="st4" d="M104.27,95.61c5.02-9.4,19.91-22.38,25.75-24.38c14.13,5.19,18.95,30.48,3.55,40.61 C136,94.56,113.61,89.88,104.27,95.61z" style="fill: rgb(35, 31, 32);"/>
      <path class="st4" d="M24.6,72.47c-2.08,0.85-5.45,3.5-7.68,6.03c-0.22-13.77,15.11-40.83,61.68-38.19 C96.62,41.33,109.3,46.16,120,56.5c2.02,1.95,4.26,4.89,4.6,8.9c0.41,4.97-3.93,10.19-10.14,8.92c-3.31-0.68-5.28-3.16-7.87-7.31 c-1.61-2.57-3.85-4.03-5.88-4.37c1.11,1.82,1.71,3.98,1.61,6.27c-0.28,6.09-5.44,10.81-11.54,10.53 c-6.1-0.28-10.81-5.44-10.53-11.54c0.08-1.83,1.09-4.13,1.95-5.62c-18.13,2.8-41.33,21.9-56,50.01 c-1.66-8.15,1.49-15.93,1.49-15.93c-1.89,0.8-3.64,2.42-5.85,5.13c-0.2-5.94-0.14-10.24,3.31-16.81 c-2.31,0.95-4.09,2.17-6.37,5.04C18.8,83.57,20.52,78.38,24.6,72.47z" style="fill: rgb(35, 31, 32);"/>
      <path class="st4" d="M102.25,102.36c1.61,0.14,7.41,1.16,11.32,2.35c-1.4,4.15,1.71,8.84,8.98,7.53c-2.27,1.7-5.13,2.69-8.19,2.55 C107.64,114.48,102.37,109,102.25,102.36z" style="fill: rgb(35, 31, 32);"/>
      <path class="st4" d="M66.53,75.08c4.07-2.96,6.99-3.82,6.99-3.82c1.32,8.25,8.26,14.73,16.94,15.12c2.8,0.13,6.5-0.61,8.91-1.64 c-0.39,19.02-18.03,37.74-34.59,34.84c-8.76-1.54-11.77-7.54-11.44-12.87c0.36-5.94,5.39-9.94,11.87-12.58 c7.67-3.12,10.24-7.62,8.71-10.94c-1.53-3.32-6.45-5.21-12.47-2.53C61.46,80.65,61.97,78.39,66.53,75.08z" style="fill: rgb(35, 31, 32);"/>
      <path class="st5" d="M92.09,115.36v-1.09h0.93c0.42,0,0.97,0,0.97,0.44c0,0.54-0.27,0.65-0.75,0.65H92.09z M93.72,116.01 c0.76-0.05,1.17-0.38,1.17-1.17c0-1.14-0.68-1.32-1.67-1.32h-2.09v4.31h0.96v-1.82h0.67l0.96,1.82h1.05L93.72,116.01z M92.78,118.89c-1.81,0-3.16-1.32-3.16-3.16c0-1.86,1.35-3.18,3.16-3.18c1.78,0,3.16,1.32,3.16,3.18 C95.94,117.57,94.56,118.89,92.78,118.89z M92.78,119.87c2.3,0,4.14-1.85,4.14-4.14c0-2.31-1.84-4.16-4.14-4.16 c-2.31,0-4.14,1.85-4.14,4.16C88.64,118.02,90.47,119.87,92.78,119.87z" style="clip-rule: evenodd; fill: rgb(35, 31, 32); fill-rule: evenodd;"/>
    </g>
    <g class="st0" style="display: none; fill: rgb(0, 0, 0);">
      <polygon class="st6" points="128.75,119.73 98.2,119.73 98.2,84.12 85.95,111.74 73.98,111.74 61.72,84.11 61.72,119.73 &#10;&#9;&#9;&#9;31.59,119.73 39.46,102.45 39.47,45.27 32.24,26.01 60.61,26.01 79.95,70.71 99.3,26.01 127.56,26.01 120.45,45.17 120.45,102.43 &#10;&#9;&#9;&#9;128.75,119.73 &#9;&#9;"/>
      <polygon class="st7" points="125.28,117.55 100.39,117.55 100.39,73.79 84.53,109.56 75.4,109.56 59.53,73.79 59.53,117.55 &#10;&#9;&#9;&#9;34.99,117.55 41.65,102.93 41.66,44.87 35.4,28.19 59.18,28.19 79.95,76.22 100.74,28.19 124.41,28.19 118.27,44.78 &#10;&#9;&#9;&#9;118.27,102.93 125.28,117.55 &#9;&#9;" style="fill: rgb(255, 213, 32);"/>
      <polygon class="st8" points="122.75,115.95 116.68,103.29 116.68,44.49 122.13,29.78 101.78,29.78 79.95,80.22 58.13,29.78 &#10;&#9;&#9;&#9;37.69,29.78 43.25,44.59 43.24,103.27 37.46,115.95 57.94,115.95 57.94,66.28 76.43,107.97 83.49,107.97 101.98,66.29 &#10;&#9;&#9;&#9;101.98,115.95 122.75,115.95 &#9;&#9;" style="fill: rgb(228, 29, 58);"/>
      <polygon class="st6" points="107.35,126.76 102.03,126.76 106.42,129.6 106.42,132.48 111.81,132.48 107.35,129.48 107.35,126.76 &#10;&#9;&#9;&#9;&#9;&#9;"/>
      <polygon class="st6" points="118.31,128.59 122.86,131.59 122.86,132.48 125.19,132.48 123.79,131.54 123.79,126.76 &#10;&#9;&#9;&#9;117.39,126.76 117.39,127.27 116.62,126.76 111.9,126.76 111.9,132.48 118.31,132.48 118.31,128.59 &#9;&#9;"/>
      <polygon class="st6" points="96.35,126.76 96.35,129.6 96.35,132.48 101.87,132.48 101.87,126.76 96.35,126.76 &#9;&#9;"/>
      <polygon class="st7" points="102.03,126.76 101.87,126.76 101.87,132.48 106.42,132.48 106.42,129.6 102.03,126.76 &#9;&#9;" style="fill: rgb(255, 213, 32);"/>
      <polygon class="st7" points="107.35,126.76 107.35,129.48 111.81,132.48 111.9,132.48 111.9,126.76 107.35,126.76 &#9;&#9;" style="fill: rgb(255, 213, 32);"/>
      <polygon class="st7" points="117.39,126.76 116.62,126.76 117.39,127.27 117.39,126.76 &#9;&#9;" style="fill: rgb(255, 213, 32);"/>
      <polygon class="st7" points="118.31,128.59 118.31,132.48 122.86,132.48 122.86,131.59 118.31,128.59 &#9;&#9;" style="fill: rgb(255, 213, 32);"/>
      <polygon class="st7" points="125.19,132.48 126.82,132.48 124.83,129.57 126.8,126.76 123.79,126.76 123.79,131.54 125.19,132.48 &#10;&#9;&#9;&#9;&#9;&#9;" style="fill: rgb(255, 213, 32);"/>
      <path class="st9" d="M64.27,129.6c0-0.96,1.41-1.75,3.35-1.86c0.08-0.35,0.18-0.68,0.32-0.97h-3.89l0,2.83H64.27L64.27,129.6z" style="fill: rgb(255, 255, 255);"/>
      <path class="st9" d="M77.72,127.44v-0.68h-6.4c0.1,0.21,0.18,0.43,0.25,0.68H77.72L77.72,127.44z" style="fill: rgb(255, 255, 255);"/>
      <path class="st9" d="M96.08,129.6C96.08,129.6,96.08,129.6,96.08,129.6c0,0.97-1.4,1.75-3.34,1.87c-0.08,0.37-0.2,0.71-0.34,1.01 h3.95v-2.88H96.08L96.08,129.6z" style="fill: rgb(255, 255, 255);"/>
      <path class="st9" d="M82.55,131.77v0.71h6.49c-0.1-0.22-0.2-0.45-0.27-0.71H82.55L82.55,131.77z" style="fill: rgb(255, 255, 255);"/>
      <path class="st8" d="M71.57,131.77c-0.07,0.26-0.17,0.49-0.27,0.71h6.42v-0.71H71.57L71.57,131.77z" style="fill: rgb(228, 29, 58);"/>
      <path class="st8" d="M64.26,129.6C64.26,129.6,64.27,129.6,64.26,129.6l-0.22-0.01l0,2.88h3.91c-0.14-0.3-0.26-0.64-0.34-1.01 C65.67,131.35,64.26,130.56,64.26,129.6L64.26,129.6z" style="fill: rgb(228, 29, 58);"/>
      <path class="st8" d="M96.08,129.6h0.27v-2.83h-3.93c0.14,0.29,0.24,0.62,0.32,0.97C94.67,127.85,96.07,128.64,96.08,129.6 L96.08,129.6z" style="fill: rgb(228, 29, 58);"/>
      <path class="st8" d="M88.77,127.44c0.07-0.24,0.15-0.47,0.25-0.68h-6.47v0.68H88.77L88.77,127.44z" style="fill: rgb(228, 29, 58);"/>
      <path class="st9" d="M64.27,129.6C64.27,129.6,64.26,129.6,64.27,129.6c0,0.97,1.4,1.75,3.35,1.87c0.08,0.37,0.19,0.71,0.34,1.01 h3.36c0.1-0.22,0.2-0.45,0.27-0.71h6.15v0.71h2.42v-2.88H64.27L64.27,129.6z" style="fill: rgb(255, 255, 255);"/>
      <path class="st8" d="M96.08,129.6C96.08,129.6,96.08,129.6,96.08,129.6l-15.94-0.01v2.88h2.41v-0.71h6.22 c0.07,0.26,0.16,0.49,0.27,0.71h3.36c0.14-0.3,0.26-0.64,0.34-1.01C94.68,131.35,96.08,130.56,96.08,129.6L96.08,129.6z" style="fill: rgb(228, 29, 58);"/>
      <path class="st9" d="M96.08,129.6c-0.01-0.95-1.41-1.75-3.34-1.86c-0.08-0.35-0.19-0.68-0.32-0.97h-3.39 c-0.1,0.21-0.19,0.43-0.25,0.68h-6.22v-0.68h-2.41v2.83H96.08L96.08,129.6z" style="fill: rgb(255, 255, 255);"/>
      <path class="st8" d="M64.27,129.6h15.87v-2.83h-2.42v0.68h-6.15c-0.07-0.24-0.16-0.47-0.25-0.68h-3.39 c-0.14,0.29-0.25,0.62-0.32,0.97C65.67,127.85,64.27,128.64,64.27,129.6L64.27,129.6z" style="fill: rgb(228, 29, 58);"/>
      <polygon class="st6" points="33.55,126.76 35.52,129.57 33.53,132.48 37.2,132.48 37.2,126.76 33.55,126.76 &#9;&#9;"/>
      <polygon class="st6" points="59.14,126.76 52.74,126.76 52.74,127.27 51.96,126.76 47.24,126.76 47.24,132.48 53.65,132.48 &#10;&#9;&#9;&#9;53.65,128.59 58.21,131.59 58.21,132.48 60.54,132.48 59.14,131.54 59.14,126.76 &#9;&#9;"/>
      <polygon class="st6" points="42.69,126.76 37.37,126.76 41.76,129.6 41.76,132.48 47.15,132.48 42.69,129.48 42.69,126.76 &#9;&#9;"/>
      <polygon class="st7" points="37.37,126.76 37.2,126.76 37.2,132.48 41.76,132.48 41.76,129.6 37.37,126.76 &#9;&#9;" style="fill: rgb(255, 213, 32);"/>
      <polygon class="st7" points="42.69,126.76 42.69,129.48 47.15,132.48 47.24,132.48 47.24,126.76 42.69,126.76 &#9;&#9;" style="fill: rgb(255, 213, 32);"/>
      <polygon class="st7" points="52.74,126.76 51.96,126.76 52.74,127.27 52.74,126.76 &#9;&#9;" style="fill: rgb(255, 213, 32);"/>
      <polygon class="st7" points="53.65,128.59 53.65,132.48 58.21,132.48 58.21,131.59 53.65,128.59 &#9;&#9;" style="fill: rgb(255, 213, 32);"/>
      <polygon class="st7" points="64.04,126.76 59.14,126.76 59.14,131.54 60.54,132.48 64.04,132.48 64.04,129.6 64.04,126.76 &#9;&#9;" style="fill: rgb(255, 213, 32);"/>
      <path class="st6" d="M33.53,132.48h93.29l-1.99-2.91l1.97-2.81H33.55l1.97,2.8L33.53,132.48L33.53,132.48z M129.59,133.99H30.75 l2.61-4.42l-2.6-4.33h98.84l-2.61,4.33L129.59,133.99L129.59,133.99z"/>
      <polygon class="st6" points="132.01,130.8 134.58,130.8 134.58,131.22 133.55,131.22 133.55,133.92 133.05,133.92 133.05,131.22 &#10;&#9;&#9;&#9;132.01,131.22 132.01,130.8 &#9;&#9;"/>
      <polygon class="st6" points="134.98,130.8 135.81,130.8 136.73,133.3 137.66,130.8 138.48,130.8 138.48,133.92 137.99,133.92 &#10;&#9;&#9;&#9;137.99,131.33 137.91,131.33 136.99,133.81 136.47,133.81 135.55,131.33 135.48,131.33 135.48,133.92 134.98,133.92 134.98,130.8 &#10;&#9;&#9;&#9;&#9;&#9;"/>
    </g>
    <g class="st0" style="display: none; fill: rgb(0, 0, 0);">
      <path class="st10" d="M103.03,37.54L79.92,69.48L56.85,37.54H21.27v25.1h8.81v34.25h-8.81v25.1h45.37v-25.1h-9.4V77.23 l22.56,31.02l22.84-31.04v19.68h-9.4v25.1h45.37v-25.1h-8.81V62.64h8.81v-25.1H103.03L103.03,37.54z M55.35,71.42v27.35h9.4v21.32 h-41.6V98.78h8.82V60.75h-8.82V39.43h32.73l24.03,33.28l24.07-33.28h32.73v21.32h-8.81v38.03h8.81v21.32h-41.6V98.78h9.4V71.45 l-24.72,33.6L55.35,71.42L55.35,71.42z" style="fill: rgb(0, 39, 76);"/>
      <polygon class="st11" points="136.72,60.75 136.72,39.43 103.99,39.43 79.92,72.71 55.89,39.43 23.16,39.43 23.16,60.75 &#10;&#9;&#9;&#9;31.97,60.75 31.97,98.78 23.16,98.78 23.16,120.1 64.75,120.1 64.75,98.78 55.35,98.78 55.35,71.42 79.81,105.05 104.53,71.45 &#10;&#9;&#9;&#9;104.53,98.78 95.12,98.78 95.12,120.1 136.72,120.1 136.72,98.78 127.91,98.78 127.91,60.75 136.72,60.75 &#9;&#9;" style="fill: rgb(255, 203, 5);"/>
      <path class="st10" d="M142.97,119.49v-0.7h0.44c0.24,0,0.56,0.02,0.56,0.32c0,0.32-0.16,0.38-0.44,0.38H142.97L142.97,119.49z M142.97,119.99h0.29l0.67,1.22h0.74l-0.75-1.27c0.39-0.03,0.7-0.22,0.7-0.76c0-0.66-0.45-0.88-1.2-0.88h-1.09v2.91h0.62V119.99 L142.97,119.99z M146.14,119.76c0-1.71-1.28-2.72-2.72-2.72c-1.44,0-2.71,1-2.71,2.72c0,1.71,1.28,2.71,2.71,2.71 C144.86,122.46,146.14,121.47,146.14,119.76L146.14,119.76z M145.36,119.76c0,1.25-0.89,2.08-1.94,2.08v-0.01 c-1.07,0.01-1.93-0.83-1.93-2.08c0-1.24,0.86-2.08,1.93-2.08C144.47,117.67,145.36,118.51,145.36,119.76L145.36,119.76z" style="fill: rgb(0, 39, 76);"/>
    </g>
    <g id="Michigan_State_Primary" class="st0" style="display: none; fill: rgb(0, 0, 0);">
      <path class="st12" d="M121.69,32.35c0,0-5.72,12.29-8.63,18.39c-14.25-6.56-32.94-7.49-48.64,1.81 c-10.47,6.4-18.91,17.78-19.79,29.99c-0.29,8.14,3.25,17.06,2.08,25.2c-0.29,4.36-1.29,8.72-3.33,12.49 c-2.62,4.36-5.75,8.15-10.98,8.44c1.16-1.45,9.24-5.44,6.07-23.74c-1.26-7.26-11.23-25.25-1.59-47.82 C45.67,36.51,83.75,12.1,121.69,32.35L121.69,32.35z" style="fill: rgb(24, 69, 59);"/>
      <path class="st12" d="M78.05,68.47c4.93-1.78,10.46-1.81,15.7-0.65c9.89,1.75,17.29,7.71,20.9,16.57 c3.78,9.27,6.49,16.75,12.97,24.68c0.19,0.23-10.13-1.51-10.09-1.8c2.52-18.37-14.85-19.13-19.63-12.25 c3.6,3.96,9.79,6,14.59,5.22c-1.02,18.25,4.07,34.8,3.78,34.77c-4.14-0.57-23.1-11.73-28.64-16.57 c-8.15,1.45-14.52,4.46-23.96,5.76c-0.29,0.04,1.73-6.96,1.44-10.45c0-9.6-7.35-18.59-2.15-30.38 C66.07,76.31,70.78,71.09,78.05,68.47L78.05,68.47z" style="fill: rgb(24, 69, 59);"/>
      <path class="st12" d="M84.87,62.94c0.55,0.01,1.39,0.14,1.41,0.08c0.16-0.63,0.67-5.18,4.55-8.5c4.31-3.69,9.98-3.33,9.92-3.36 c-5.65-1.73-11.47-1.85-15.49-1.49L84.87,62.94L84.87,62.94z" style="fill: rgb(24, 69, 59);"/>
      <path class="st12" d="M48.94,79.5c-0.86,5.47-0.92,10.54-0.46,13.24c0.01,0.04,0.81-4.63,3.47-7.26c2.31-2.29,5.26-2.74,6.3-2.7 c0-0.01,0.52-1.79,0.45-1.79L48.94,79.5L48.94,79.5z" style="fill: rgb(24, 69, 59);"/>
      <path class="st12" d="M59.88,78.48c0.28-0.73,0.63-1.37,1.05-2.2L50.9,72.39c-0.62,1.25-1.09,3.12-1.33,4.14L59.88,78.48 L59.88,78.48z" style="fill: rgb(24, 69, 59);"/>
      <path class="st12" d="M62.3,74.65c0.03-0.03,1.61-2.05,1.64-2.03l-9.2-6.91c-0.96,1.21-1.74,2.54-2.36,3.94L62.3,74.65L62.3,74.65 z" style="fill: rgb(24, 69, 59);"/>
      <path class="st12" d="M65.72,70.89c0.05-0.05,2.04-1.86,2.04-1.86l-7.97-9.06c-1.8,1.56-2.34,2.26-3.44,3.59L65.72,70.89 L65.72,70.89z" style="fill: rgb(24, 69, 59);"/>
      <path class="st12" d="M69.86,67.75c0.02,0.11,2.29-1.27,2.34-1.37L66.28,55.6c-2.26,1.09-3.71,2.27-4.37,2.73L69.86,67.75 L69.86,67.75z" style="fill: rgb(24, 69, 59);"/>
      <path class="st12" d="M74.25,65.36c2.82-0.96,2.81-0.99,2.81-0.94L73.7,52.32c-1.87,0.55-4.4,1.63-5,2.03L74.25,65.36L74.25,65.36 z" style="fill: rgb(24, 69, 59);"/>
      <path class="st12" d="M79.25,63.72c0.1,0.05,2.55-0.54,2.58-0.55l0.31-13.12c-0.1,0.1-3.05,0.55-5.55,1.25L79.25,63.72 L79.25,63.72z" style="fill: rgb(24, 69, 59);"/>
      <path class="st12" d="M124.21,132.92h0.29c0.31,0,0.6-0.1,0.6-0.36c0-0.22-0.15-0.39-0.56-0.39c-0.17,0-0.26,0.01-0.33,0.03 V132.92L124.21,132.92z M124.21,134.23h-0.43v-2.32c0.24-0.04,0.49-0.07,0.81-0.07c0.39,0,0.58,0.07,0.72,0.18 c0.14,0.1,0.24,0.28,0.24,0.5c0,0.28-0.21,0.46-0.44,0.54v0.03c0.19,0.08,0.31,0.26,0.37,0.57c0.07,0.35,0.12,0.49,0.18,0.57 h-0.44c-0.07-0.08-0.12-0.29-0.19-0.6c-0.05-0.26-0.21-0.37-0.53-0.37h-0.28V134.23L124.21,134.23z M124.59,131.19 c-1,0-1.76,0.82-1.76,1.82c0,1.03,0.76,1.83,1.79,1.83c0.99,0.01,1.74-0.8,1.74-1.82c0-1.01-0.75-1.83-1.75-1.83H124.59 L124.59,131.19z M124.62,130.8c1.25,0,2.22,0.97,2.22,2.21c0,1.26-0.97,2.23-2.23,2.23c-1.26,0-2.26-0.97-2.26-2.23 c0-1.24,1-2.21,2.26-2.21H124.62L124.62,130.8z" style="fill: rgb(24, 69, 59);"/>
    </g>
    <g id="Minnesota_Primary" class="st0" style="display: none; fill: rgb(0, 0, 0);">
      <path class="st13" d="M151.85,111.24c0.4,0.16,0.74,0.38,1.03,0.67c0.29,0.29,0.52,0.6,0.68,0.94c0.22,0.45,0.33,0.93,0.33,1.43 c0,0.57-0.15,1.12-0.43,1.64c-0.29,0.52-0.69,0.92-1.2,1.21c-0.51,0.29-1.05,0.43-1.62,0.43c-0.56,0-1.1-0.14-1.61-0.43 c-0.51-0.29-0.92-0.69-1.2-1.21c-0.29-0.52-0.43-1.06-0.43-1.64c0-0.49,0.09-0.93,0.28-1.33c0.19-0.4,0.42-0.74,0.7-1.01 c0.28-0.28,0.59-0.49,0.92-0.64c0.44-0.2,0.89-0.29,1.34-0.29C151.05,111,151.45,111.08,151.85,111.24z M154.15,112.68 c-0.18-0.39-0.42-0.76-0.75-1.09c-0.32-0.33-0.72-0.61-1.2-0.83c-0.47-0.22-1-0.33-1.57-0.33c-0.59,0-1.15,0.13-1.67,0.38 c-0.38,0.18-0.74,0.44-1.07,0.76c-0.32,0.32-0.59,0.72-0.8,1.19c-0.21,0.47-0.31,0.98-0.31,1.52c0,0.67,0.17,1.32,0.51,1.93 c0.34,0.61,0.81,1.08,1.42,1.42c0.61,0.34,1.25,0.51,1.91,0.51c0.6,0,1.15-0.13,1.68-0.38c0.41-0.2,0.78-0.47,1.11-0.81 c0.34-0.34,0.6-0.75,0.78-1.22c0.18-0.47,0.28-0.95,0.28-1.44C154.49,113.73,154.37,113.2,154.15,112.68z M150.51,114.83 c0.24,0,0.43,0.03,0.56,0.1c0.13,0.07,0.22,0.16,0.27,0.27c0.06,0.12,0.09,0.3,0.11,0.56c0.02,0.36,0.04,0.57,0.07,0.64h0.91 c-0.04-0.12-0.06-0.3-0.06-0.56c-0.01-0.26-0.02-0.44-0.04-0.55c-0.04-0.17-0.09-0.31-0.17-0.42c-0.08-0.11-0.18-0.2-0.3-0.27 c-0.12-0.07-0.27-0.12-0.47-0.16c0.22-0.03,0.38-0.06,0.47-0.11c0.17-0.08,0.31-0.21,0.41-0.38c0.1-0.17,0.16-0.35,0.16-0.57 c0-0.22-0.05-0.41-0.15-0.58c-0.1-0.17-0.22-0.3-0.38-0.4c-0.15-0.1-0.35-0.17-0.59-0.22c-0.17-0.03-0.42-0.04-0.76-0.04h-1.53 v4.26h0.95v-1.57H150.51z M151.01,112.87c0.15,0.04,0.26,0.12,0.34,0.22c0.08,0.1,0.12,0.23,0.12,0.37c0,0.14-0.03,0.26-0.11,0.37 c-0.07,0.11-0.18,0.19-0.32,0.25c-0.14,0.05-0.29,0.08-0.45,0.08h-0.63v-1.35h0.63C150.73,112.8,150.86,112.82,151.01,112.87z" style="fill: rgb(101, 28, 50);"/>
      <polygon class="st13" points="136.02,98.68 113.55,61.32 119.74,61.32 119.74,41.86 82.34,41.86 82.34,61.32 88.53,61.32 &#10;&#9;&#9;&#9;79.94,75.59 71.36,61.32 77.55,61.32 77.55,41.86 40.15,41.86 40.15,61.32 46.33,61.32 23.86,98.68 15.85,98.68 15.85,118.14 &#10;&#9;&#9;&#9;53.99,118.14 53.99,98.68 47.14,98.68 58.85,79.22 63.38,86.76 59.03,86.76 59.03,106.22 100.85,106.22 100.85,86.76 96.5,86.76 &#10;&#9;&#9;&#9;101.04,79.22 112.74,98.68 105.89,98.68 105.89,118.14 144.03,118.14 144.03,98.68 &#9;&#9;" style="fill: rgb(101, 28, 50);"/>
      <path class="st14" d="M117.24,44.35c0,3.24,0,11.24,0,14.47c-1.78,0-8.11,0-8.11,0l25.47,42.34c0,0,4.56,0,6.93,0 c0,3.23,0,11.24,0,14.47c-4.06,0-29.1,0-33.16,0c0-3.23,0-11.24,0-14.47c2.02,0,8.77,0,8.77,0l-16.12-26.79l-8.95,14.88 c0,0,5.36,0,6.27,0c0,3.23,0,11.24,0,14.47c-4.13,0-32.7,0-36.83,0c0-3.23,0-11.24,0-14.47c0.91,0,6.27,0,6.27,0l-8.95-14.88 l-16.12,26.79c0,0,6.75,0,8.77,0c0,3.23,0,11.24,0,14.47c-4.05,0-29.1,0-33.15,0c0-3.23,0-11.24,0-14.47c2.37,0,6.93,0,6.93,0 l25.47-42.34c0,0-6.33,0-8.11,0c0-3.23,0-11.24,0-14.47c4.03,0,28.37,0,32.41,0c0,3.24,0,11.24,0,14.47c-1.78,0-8.11,0-8.11,0 l13,21.6l13-21.6c0,0-6.33,0-8.11,0c0-3.23,0-11.24,0-14.47C88.87,44.35,113.2,44.35,117.24,44.35z" style="fill: rgb(255, 204, 51);"/>
      <path class="st13" d="M114.75,46.85c0,2.71,0,6.78,0,9.48c-2.39,0-10.02,0-10.02,0l28.48,47.33c0,0,3.8,0,5.85,0 c0,2.71,0,6.78,0,9.48c-3.92,0-24.25,0-28.17,0c0-2.71,0-6.77,0-9.48c2.55,0,10.69,0,10.69,0l-20.53-34.13L87.67,91.75 c0,0,6.38,0,8.18,0c0,2.71,0,6.78,0,9.48c-4.02,0-27.82,0-31.84,0c0-2.71,0-6.78,0-9.48c1.81,0,8.19,0,8.19,0L58.85,69.54 l-20.53,34.13c0,0,8.13,0,10.69,0c0,2.71,0,6.78,0,9.48c-3.92,0-24.24,0-28.16,0c0-2.71,0-6.77,0-9.48c2.04,0,5.84,0,5.84,0 l28.48-47.33c0,0-7.63,0-10.02,0c0-2.71,0-6.78,0-9.48c3.9,0,23.52,0,27.42,0c0,2.71,0,6.78,0,9.48c-2.39,0-10.02,0-10.02,0 l17.41,28.94l17.41-28.94c0,0-7.63,0-10.02,0c0-2.71,0-6.78,0-9.48C91.22,46.85,110.85,46.85,114.75,46.85z" style="fill: rgb(101, 28, 50);"/>
    </g>
    <g id="Nebraska_Primary" class="st0" style="display: none; fill: rgb(0, 0, 0);">
      <path class="st15" d="M131.83,122.67c-1.42,0-2.54,1.11-2.54,2.51c0,1.38,1.13,2.51,2.51,2.51c1.38,0,2.51-1.12,2.51-2.51 C134.31,123.81,133.19,122.67,131.83,122.67z M131.8,127.19c-1.1,0-2.01-0.91-2.01-2c0-1.13,0.89-2.02,2.03-2.02 c1.09,0,1.98,0.92,1.98,2.01C133.81,126.29,132.9,127.19,131.8,127.19z" style="fill: rgb(227, 25, 55);"/>
      <path class="st15" d="M130.79,123.67h0.89c0.37,0,0.51,0.02,0.67,0.09c0.25,0.12,0.4,0.39,0.4,0.71c0,0.23-0.08,0.44-0.22,0.6 c-0.09,0.1-0.17,0.15-0.35,0.24l-0.07,0.03l0.69,1.34h-0.5l-0.66-1.28h-0.35v1.28h-0.5V123.67z M131.57,124.99 c0,0,0.17,0,0.23-0.01c0.23-0.05,0.37-0.22,0.37-0.47c0-0.2-0.09-0.33-0.25-0.38c-0.07-0.02-0.09-0.02-0.38-0.02h-0.25v0.89 H131.57z" style="fill: rgb(227, 25, 55);"/>
      <path class="st15" d="M124.27,32.31H90.39h-3.14v3.14v21.96v3.14h3.14h3.14V76.1L66.68,33.77l-0.92-1.46h-1.73H35.17h-3.14v3.14 v21.96v3.14h3.14h3.14v38.9h-3.14h-3.14v3.14v21.96v3.14h3.14h33.88h3.14v-3.14v-21.96v-3.14h-3.14h-3.14V83.91l26.84,42.32 l0.92,1.46h1.73h28.86h3.14v-3.14v-21.96v-3.14h-3.14h-3.14v-38.9h3.14h3.14v-3.14V35.45v-3.14H124.27z M126.15,35.45v21.96v1.88 h-1.88h-4.39v41.41h4.39h1.88v1.88v21.96v1.88h-1.88H95.4h-1.04l-0.55-0.87L64.66,79.58v21.12h4.39h1.88v1.88v21.96v1.88h-1.88 H35.17h-1.88v-1.88v-21.96v-1.88h1.88h4.39V59.29h-4.39h-1.88v-1.88V35.45v-1.88h1.88h28.86h1.04l0.55,0.87l29.16,45.98V59.29 h-4.39H88.5v-1.88V35.45v-1.88h1.88h33.88h1.88V35.45z" style="fill: rgb(227, 25, 55);"/>
      <path class="st9" d="M124.27,33.57H90.39H88.5v1.88v21.96v1.88h1.88h4.39v21.13L65.62,34.44l-0.55-0.87h-1.04H35.17h-1.88v1.88 v21.96v1.88h1.88h4.39v41.41h-4.39h-1.88v1.88v21.96v1.88h1.88h33.88h1.88v-1.88v-21.96v-1.88h-1.88h-4.39V79.58l29.16,45.97 l0.55,0.87h1.04h28.86h1.88v-1.88v-21.96v-1.88h-1.88h-4.39V59.29h4.39h1.88v-1.88V35.45v-1.88H124.27z M69.05,102.59 L69.05,102.59v21.96H35.17v-21.96v0c0,0,4.89,0,6.27,0c0-2.07,0-43.11,0-45.18c-1.39,0-6.27,0-6.27,0V35.45h28.86l32.63,51.46 c0,0,0-27.87,0-29.49c-1.38,0-6.27,0-6.27,0V35.45h33.88v21.96c0,0-4.88,0-6.27,0c0,2.07,0,43.11,0,45.18c1.39,0,6.27,0,6.27,0v0 v21.96H95.4L62.78,73.1c0,0,0,27.88,0,29.49C64.15,102.59,69.05,102.59,69.05,102.59z" style="fill: rgb(255, 255, 255);"/>
      <path class="st15" d="M96.66,86.91L96.66,86.91L64.03,35.45H35.17v21.96c0,0,4.89,0,6.27,0c0,2.07,0,43.11,0,45.18v0 c-1.39,0-6.27,0-6.27,0v21.96h33.88v-21.96c0,0-4.9,0-6.27,0v0c0-1.61,0-29.49,0-29.49l32.63,51.45h28.86v-21.96 c0,0-4.88,0-6.27,0v0c0-2.07,0-43.11,0-45.18c1.39,0,6.27,0,6.27,0V35.45H90.39v21.96c0,0,4.9,0,6.27,0 C96.66,59.04,96.66,86.91,96.66,86.91z" style="fill: rgb(227, 25, 55);"/>
    </g>
    <g id="Northwestern_Primary" class="st0" style="display: none; fill: rgb(0, 0, 0);">
      <polygon class="st16" points="89.85,25.65 89.85,40.13 105.99,67.25 105.99,99.35 62.58,25.65 45.76,25.65 45.76,134.35 &#10;&#9;&#9;&#9;70.15,134.35 70.15,119.87 54.01,92.75 54.01,60.65 97.42,134.35 114.24,134.35 114.24,25.65 &#9;&#9;" style="fill: rgb(88, 44, 131);"/>
      <path class="st16" d="M74.57,129c-1.48,0-2.67,1.2-2.67,2.68c0,1.48,1.2,2.68,2.67,2.68c1.48,0,2.68-1.2,2.68-2.68 C77.25,130.2,76.05,129,74.57,129z M74.57,133.78c-1.16,0-2.1-0.94-2.1-2.1c0-1.16,0.94-2.1,2.1-2.1c1.16,0,2.1,0.94,2.1,2.1 C76.68,132.84,75.73,133.78,74.57,133.78z" style="fill: rgb(88, 44, 131);"/>
      <path class="st16" d="M75.67,131.06c0-0.5-0.41-0.91-0.91-0.91l-1.29,0v3.06h0.57v-1.24h0.41l0.58,1.24h0.63l-0.6-1.29 C75.42,131.79,75.67,131.45,75.67,131.06z M74.76,131.39h-0.72v-0.67h0.72c0.18,0,0.33,0.15,0.33,0.33 C75.1,131.24,74.95,131.39,74.76,131.39z" style="fill: rgb(88, 44, 131);"/>
    </g>
    <g id="Ohio_State_Outlined" class="st0" style="display: none; fill: rgb(0, 0, 0);">
      <path class="st9" d="M115.9,61.16l-0.02-13.41L96.02,27.93H64.86L44.74,47.68l0.03,13.45c-9.8,3.37-17.61,7.4-17.61,7.4 l-0.09,51.43l5.9,3.84l7.8-4.7l3.59-6.97l20.53,19.94l31.01-0.08l15.94-15.85c0.71,0.98,1.86,1.62,3.18,1.62 c1.47,0,2.74-0.8,3.42-1.99c4.21,3.18,14.48,11.44,14.48,11.44l0.01-58.81C132.93,68.4,122.82,63.37,115.9,61.16z M40.52,113.28 l-1.81,3.89c-0.31,0.17-5.16,3.11-5.68,3.43l-3.09-2.07V78.72l1.95-3.73c1.92-1.07,3.83-1.95,5.83-2.88l2.84,2.07L40.52,113.28z M65.85,96.97v6.31l7.68,7.58l13.77,0.1l7.53-7.7l0.01-6.34c4.71,0.93,8.78,2.16,12.78,3.85l0,7.79l-15.05,15.21l-24.32-0.19 l-15.18-14.95v-7.85C56.87,99.15,61.32,97.87,65.85,96.97z M55.14,97.57l0.08-31.28c1.24-0.33,2.48-0.57,3.72-0.86l-0.01,30.91 C57.54,96.75,56.39,97.15,55.14,97.57z M94.34,94.56c-1.26-0.22-2.71-0.4-4.1-0.6l0-26.4c0,0-1.7-0.19-2.82-0.3l-0.01-3.91 c3.39,0.3,6.39,0.62,9.76,1.21v3.94c-1.41-0.24-2.96-0.46-2.96-0.46L94.34,94.56z M75.85,105.28l9.12-0.01l4.32-4.33v-4.83 c1.06,0.13,1.86,0.25,2.89,0.43l-0.02,5.6l-6.08,6.13l-11.44-0.08l-6.1-5.98v-5.73c1.04-0.18,1.86-0.21,2.92-0.34v4.88 L75.85,105.28z M82.35,98.76l-0.04-17.06h-5.11l-3.04-2.89V60.1l2.8-2.76l6.82,0l2.75,2.74l-0.01,11.37l-4.05,0.01l-0.01-9.85 l-4.13-0.02l0.01,15.36l5.16,0l2.99,2.87l0.08,20.01l-2.78,2.81l-6.83-0.04l-2.81-2.77V87.29h4.08v11.47H82.35z M92.15,61.4 c-1.05-0.13-1.9-0.26-2.94-0.36v-2.1l-4.33-4.3h-8.99l-4.43,4.32v2.13c-1.04,0.1-1.86,0.14-2.91,0.27v-3.59l6.18-6.06h11.38 l6.04,6.06V61.4z M71.08,66.38L71,91.7l-1.84,2.42c-2.19,0.34-3.89,0.61-6.16,1.16l-2.01-1.81l-0.03-25.93l2.22-2.91 c1.78-0.33,3.56-0.55,5.33-0.78L71.08,66.38z M104.2,97.17V83.11l-2.41-0.69v13.92c-1.21-0.39-2.44-0.64-3.68-0.97l0-27.93 l2.47-2.26c1.8,0.39,3.38,0.67,5.18,1.16l2.12,3.81v28.4C106.66,98.03,105.44,97.63,104.2,97.17z M107.62,64.33 c-4.35-1.2-8.5-1.99-12.79-2.63v-5.06l-7.59-7.6H73.6l-7.74,7.55v5.15c-4.3,0.65-8.47,1.39-12.82,2.61V51.3l15.27-15.03h24.2 l15.1,15.1V64.33z M53.18,66.84l0,31.48c-1.31,0.55-2.35,0.95-3.6,1.56l-0.04-15.02c-1.11,0.38-2.56,1.01-2.56,1.01l0.04,15.33 c-1.64,0.99-2.69,1.5-4.05,2.44l0.01-33.56c1.28-0.52,2.49-0.87,3.78-1.33l0.04,12.91l2.51-0.96V67.96 C50.61,67.49,51.89,67.21,53.18,66.84z M115.03,115.96c-1.19,0-2.13-0.95-2.13-2.13c0-1.19,0.94-2.14,2.13-2.14 c1.18,0,2.13,0.95,2.13,2.14C117.16,115.01,116.21,115.96,115.03,115.96z M118.83,110.63c-1.71-1.45-3.56-2.71-5.64-3.96l0,4.32 l-18.41,18.42l-28.78-0.03l-18.58-18.47v-4.4c-1.49,0.87-3.12,2.25-4.44,3.3v-3.47c2.19-1.61,4.33-2.92,7.39-4.41v7.86 l16.78,16.69l26.52,0.01l16.64-16.79l0.02-7.76c3.2,1.51,6.01,3.38,8.51,5.3V110.63z M119.46,74.95c-0.24-0.11-3.58-1.4-3.58-1.4 l-0.01,28.92c-1.21-0.78-2.38-1.42-3.72-2.09l-0.01-28.14c0,0-2.74-0.85-3.02-0.93l-0.01-4.07c3.42,1.05,7.03,2.09,10.36,3.51 V74.95z M130.23,80.21c-1.87-1.06-5.49-2.85-5.49-2.85l-0.01,14.16c0,0,3.89,2.06,5.49,3.07v4.85c-1.65-1-5.33-3-5.33-3v15.56 c0,0,3.59,2.89,5.33,4.3v5.11c-2.55-2.17-6.63-5.4-9.41-7.51l-0.1-42.64c3.19,1.43,6.51,2.7,9.52,4.47L130.23,80.21z M130.24,73.02c-5.55-3.1-14.18-6.37-19.95-7.99l0.02-14.99L93.65,33.57l-26.42,0.01L50.37,50.15v14.93 c-5,1.47-14.21,4.54-20.37,8.1v-3.01c5.61-3.02,11.68-5.23,17.46-7.08l-0.03-14.28l18.53-18.19H94.9l18.3,18.25l0.02,14.25 c5.9,1.89,11.43,3.9,17.02,6.9V73.02z" style="fill: rgb(255, 255, 255);"/>
      <path class="st9" d="M115.03,112.2c-0.93,0-1.63,0.68-1.63,1.64c0,0.95,0.69,1.63,1.63,1.63c0.92,0,1.63-0.68,1.63-1.63 C116.65,112.87,115.94,112.2,115.03,112.2z M116.05,114.91h-0.54l-0.5-0.94h-0.34v0.94h-0.5v-2.22h1.08 c0.51,0,0.86,0.09,0.86,0.68c0,0.41-0.21,0.58-0.6,0.6L116.05,114.91z" style="fill: rgb(255, 255, 255);"/>
      <path class="st9" d="M115.15,113.08h-0.48v0.56h0.59c0.25,0,0.39-0.05,0.39-0.33C115.65,113.08,115.36,113.08,115.15,113.08z" style="fill: rgb(255, 255, 255);"/>
      <polygon class="st9" points="64.77,68.48 64.69,90.96 67.29,90.48 67.19,68.13 &#9;&#9;" style="fill: rgb(255, 255, 255);"/>
      <polygon class="st9" points="33.9,115.73 36.74,113.8 36.75,76.86 33.92,78.35 &#9;&#9;" style="fill: rgb(255, 255, 255);"/>
      <polygon class="st9" points="101.82,78.4 104.11,78.97 104.11,70.02 101.81,69.45 &#9;&#9;" style="fill: rgb(255, 255, 255);"/>
      <path class="st6" d="M115.03,111.69c-1.19,0-2.13,0.95-2.13,2.14c0,1.18,0.94,2.13,2.13,2.13c1.18,0,2.13-0.95,2.13-2.13 C117.16,112.64,116.21,111.69,115.03,111.69z M115.03,115.46c-0.93,0-1.63-0.68-1.63-1.63c0-0.96,0.69-1.64,1.63-1.64 c0.92,0,1.63,0.68,1.63,1.64C116.65,114.78,115.94,115.46,115.03,115.46z"/>
      <path class="st6" d="M116.11,113.38c0-0.59-0.35-0.68-0.86-0.68h-1.08v2.22h0.5v-0.94h0.34l0.5,0.94h0.54l-0.54-0.94 C115.9,113.95,116.11,113.78,116.11,113.38z M115.26,113.64h-0.59v-0.56h0.48c0.22,0,0.5,0,0.5,0.23 C115.65,113.59,115.51,113.64,115.26,113.64z"/>
      <path class="st6" d="M120.81,113.89c2.78,2.11,6.86,5.35,9.41,7.51v-5.11c-1.74-1.41-5.33-4.3-5.33-4.3V96.43c0,0,3.68,2,5.33,3 v-4.85c-1.61-1-5.49-3.07-5.49-3.07l0.01-14.16c0,0,3.61,1.79,5.49,2.85l0-4.49c-3-1.78-6.33-3.04-9.52-4.47L120.81,113.89z"/>
      <path class="st6" d="M55.22,66.29l-0.08,31.28c1.25-0.42,2.4-0.82,3.79-1.23l0.01-30.91C57.7,65.72,56.46,65.96,55.22,66.29z"/>
      <path class="st6" d="M109.12,71.31c0.29,0.08,3.02,0.93,3.02,0.93l0.01,28.14c1.35,0.67,2.52,1.31,3.72,2.09l0.01-28.92 c0,0,3.33,1.29,3.58,1.4v-4.2c-3.32-1.41-6.94-2.46-10.36-3.51L109.12,71.31z"/>
      <path class="st6" d="M97.18,64.56c-3.37-0.6-6.37-0.91-9.76-1.21l0.01,3.91c1.11,0.11,2.82,0.3,2.82,0.3l0,26.4 c1.39,0.2,2.84,0.38,4.1,0.6l-0.13-26.51c0,0,1.55,0.22,2.96,0.46V64.56z"/>
      <path class="st6" d="M63.17,64.63l-2.22,2.91l0.03,25.93l2.01,1.81c2.27-0.55,3.97-0.82,6.16-1.16L71,91.7l0.08-25.32l-2.58-2.53 C66.73,64.08,64.95,64.29,63.17,64.63z M64.69,90.96l0.08-22.48l2.42-0.35l0.1,22.34L64.69,90.96z"/>
      <path class="st6" d="M107.86,70.15l-2.12-3.81c-1.8-0.48-3.38-0.77-5.18-1.16l-2.47,2.26l0,27.93c1.25,0.32,2.48,0.58,3.68,0.97 V82.42l2.41,0.69v14.06c1.25,0.46,2.47,0.86,3.66,1.39V70.15z M104.11,78.97l-2.29-0.58l0-8.95l2.3,0.57L104.11,78.97z"/>
      <path class="st6" d="M49.32,80.68l-2.51,0.96l-0.04-12.91c-1.3,0.47-2.5,0.81-3.78,1.33l-0.01,33.56 c1.36-0.94,2.41-1.44,4.05-2.44l-0.04-15.33c0,0,1.45-0.63,2.56-1.01l0.04,15.02c1.25-0.61,2.29-1.01,3.6-1.56l0-31.48 c-1.29,0.37-2.57,0.65-3.85,1.13V80.68z"/>
      <polygon class="st6" points="74.15,87.29 74.15,99.83 76.96,102.59 83.79,102.64 86.57,99.83 86.49,79.82 83.5,76.95 78.34,76.96 &#10;&#9;&#9;&#9;78.32,61.6 82.45,61.62 82.46,71.47 86.51,71.46 86.53,60.09 83.77,57.35 76.95,57.35 74.15,60.1 74.15,78.82 77.19,81.71 &#10;&#9;&#9;&#9;82.31,81.71 82.35,98.76 78.23,98.76 78.23,87.29 &#9;&#9;"/>
      <path class="st6" d="M31.89,74.99l-1.95,3.73v39.81l3.09,2.07c0.52-0.32,5.37-3.26,5.68-3.43l1.81-3.89l0.04-39.1l-2.84-2.07 C35.72,73.05,33.8,73.92,31.89,74.99z M36.74,113.8l-2.84,1.93l0.02-37.38l2.82-1.49L36.74,113.8z"/>
      <path class="st17" d="M68.54,96.47v5.73l6.1,5.98l11.44,0.08l6.08-6.13l0.02-5.6c-1.04-0.18-1.84-0.3-2.89-0.43v4.83l-4.32,4.33 l-9.12,0.01l-4.39-4.27v-4.88C70.4,96.26,69.58,96.29,68.54,96.47z" style="fill: rgb(168, 173, 180);"/>
      <path class="st17" d="M74.73,51.71l-6.18,6.06v3.59c1.05-0.14,1.87-0.17,2.91-0.27v-2.13l4.43-4.32h8.99l4.33,4.3v2.1 c1.04,0.1,1.89,0.23,2.94,0.36v-3.62l-6.04-6.06H74.73z" style="fill: rgb(168, 173, 180);"/>
      <path class="st17" d="M113.2,48.87L94.9,30.62H65.96L47.43,48.81l0.03,14.28C41.67,64.94,35.6,67.15,30,70.17v3.01 c6.17-3.56,15.37-6.63,20.37-8.1V50.15l16.86-16.58l26.42-0.01l16.66,16.47l-0.02,14.99c5.77,1.62,14.39,4.89,19.95,7.99v-3.01 c-5.59-3-11.12-5.01-17.02-6.9L113.2,48.87z" style="fill: rgb(168, 173, 180);"/>
      <path class="st17" d="M110.3,109.7l-16.64,16.79l-26.52-0.01l-16.78-16.69v-7.86c-3.06,1.49-5.2,2.8-7.39,4.41v3.47 c1.32-1.05,2.96-2.43,4.44-3.3v4.4l18.58,18.47l28.78,0.03l18.41-18.42l0-4.32c2.08,1.25,3.92,2.51,5.64,3.96v-3.4 c-2.51-1.92-5.32-3.78-8.51-5.3L110.3,109.7z" style="fill: rgb(168, 173, 180);"/>
      <path class="st18" d="M68.31,36.27L53.04,51.3v13.04c4.35-1.22,8.52-1.96,12.82-2.61v-5.15l7.74-7.55h13.64l7.59,7.6v5.06 c4.3,0.63,8.45,1.43,12.79,2.63V51.37l-15.1-15.1H68.31z" style="fill: rgb(186, 12, 47);"/>
      <path class="st18" d="M53.07,108.65l15.18,14.95l24.32,0.19l15.05-15.21l0-7.79c-4-1.7-8.08-2.93-12.78-3.85l-0.01,6.34l-7.53,7.7 l-13.77-0.1l-7.68-7.58v-6.31c-4.53,0.9-8.98,2.18-12.78,3.82V108.65z" style="fill: rgb(186, 12, 47);"/>
    </g>
    <g id="Penn_State_Primary">
      <g>
        <path class="st19" d="M127.98,54.16c9.05,8.26,15.07,18.82,12.57,31.36c-3.43,18.85-23.62,30.87-40.64,34.48 c-14.23,3.49-30.9,2.39-44.54-1.45c-13.7-4.34-29.21-13.38-34.91-28.02c-4.54-13.64,1.16-27.32,11.81-36.36 c14.78-12.4,32.9-17.14,53.06-16.12C101.19,39.43,115.79,43.86,127.98,54.16L127.98,54.16z" style="fill: rgb(255, 255, 255);"/>
        <path class="st20" d="M124.78,53.81c7.59,6.08,12.89,13.85,14.23,22.9c1.6,13.99-7.19,25.86-18.71,33.02 c-15.51,9.42-35.2,12.57-54.46,9.22c-12.25-2.12-25.75-10.33-29.59-23.1c-3.87-11.23-1.05-23.94,7.19-32.21 c5.15-5.61,11.32-9.83,17.51-13.27h-0.7c-10.53,2.41-20.39,6.75-28.13,15.65c-7.21,8.06-7.91,21.65-3.64,31.27 c0.87,2.21,2.27,4.19,3.49,6.23C23.39,95.9,18.45,85.05,21.71,73.5c4.51-17.02,22.61-27.32,38.05-31.36 C82.3,36.61,106.98,40.6,124.78,53.81L124.78,53.81z" style="fill: rgb(6, 20, 64);"/>
      </g>
      <path class="st19" d="M66.19,62.68h-0.15c0.76-5.44,2.15-10.59,4.48-15.36c0.67-0.9,1.08-2.15,2.24-2.59 c2.53,0.17,3.46,3,4.95,4.6c0.2,0.41,0.61,0.7,0.55,1.19C73.14,52.64,68.89,58.08,66.19,62.68L66.19,62.68z M102.29,100.59 c4.33-1.66,8.55-3.61,12.77-5.59c4.28-2.36,8.79-4.1,12.65-7.48c1.96-2.73,3.87-6.2,2.01-9.57c-5.21-6.92-13-9.43-19.35-14.58 c-2.12-1.95-3.23-4.86-5.7-6.08c-7.65-2.97-15.45-5.5-23.68-6.98c-2.36-2.88-4.19-7.88-8.58-8.03c-2.85,0.99-4.1,4.1-5.18,6.57 c-2.27,6.08-3.78,12.57-4.6,19.2c7.39-5.21,15.91-7.68,25.05-8.67c5.26-0.23,11.14-1.16,16.06,0.41c2.73,1.11,3.61,4.42,6.17,5.94 c4.07,2.65,8.26,4.98,12.22,7.91c2.44,2.15,6.2,4.27,6.28,7.88c-0.88,3.16-1.98,5.79-5.03,6.84l-0.15-0.2 c0.64-2.18,0.41-4.65-0.64-6.57c-3.81-5.96-10.18-8.96-16.26-11.08c-1.57-0.38-2.73-0.65-4.74-1.13c0.7-0.96,0.61-2.33,0.2-3.4 c-0.29-0.5-0.64-1.25-1.4-1.05l-10.82,4.89c4.92-0.17,9.4,1.13,13.7,2.65c5.35,2.53,12.89,6.6,13.47,13.47 c0.29,3.35-1.48,6.08-4.19,7.97c-6.98,3.9-14.34,6.92-21.94,9.43c-11.03,2.18-25.57,3.9-33.78-5.47c-0.38-0.46-0.7-1.08-1.13-1.4 c-0.23,2.76,0.52,5.27,1.75,7.48c1.92,2.97,5,4.57,8.32,4.89c9.22,0.55,17.28-2.53,25.63-4.6l17.37,2.71 c7.05,0.89,8.15-3.64,9.51-5.79c0.96-2.09,2.09-4.25,2.71-6.34c-5.96,2.39-12.04,4.48-18.15,6.54l-0.26-0.22 C102.38,100.92,101.97,100.76,102.29,100.59L102.29,100.59z" style="fill: rgb(255, 255, 255);"/>
      <path class="st20" d="M133.95,111.38c0,1.36-0.96,2.27-2.1,2.27v-0.01c-1.17,0.01-2.11-0.9-2.11-2.26c0-1.36,0.94-2.25,2.11-2.25 C132.98,109.13,133.95,110.02,133.95,111.38L133.95,111.38z M134.8,111.38c0-1.86-1.4-2.93-2.95-2.93c-1.57,0-2.96,1.07-2.96,2.93 c0,1.86,1.39,2.94,2.96,2.94C133.4,114.31,134.8,113.24,134.8,111.38L134.8,111.38z M131.35,111.63h0.32l0.74,1.33h0.8l-0.81-1.38 c0.42-0.03,0.76-0.24,0.76-0.83c0-0.73-0.48-0.96-1.3-0.96h-1.19v3.18h0.67V111.63L131.35,111.63z M131.35,111.09v-0.77h0.48 c0.26,0,0.61,0.03,0.61,0.35c0,0.35-0.18,0.41-0.49,0.41H131.35L131.35,111.09z" style="fill: rgb(6, 20, 64);"/>
    </g>
  </g>
</svg>