<svg width="88" height="60" viewBox="0 0 88 60" fill="none" xmlns="http://www.w3.org/2000/svg">
<path d="M60.7358 0V14.3897H67.1342C66.2954 17.5193 64.1662 25.4454 62.1768 32.8446C59.6282 22.5847 54.0149 0.0107546 54.0149 0.0107546H40.4547C40.4547 0.0107546 34.3897 22.5954 31.6368 32.8338C29.798 25.4132 27.8408 17.4762 27.0773 14.3897H33.8198V0H0V14.3897H7.01129C7.77479 17.4547 18.41 60 18.41 60H37.5943C37.5943 60 41.2182 46.2448 43.4119 37.8778C45.5089 46.2448 48.9392 60 48.9392 60H68.1235C68.1235 60 79.3287 17.401 80.1244 14.3897H87.0927V0H60.7251H60.7358ZM84.9312 12.2172H78.4576C78.4576 12.2172 66.6072 57.2898 66.4567 57.8276H50.6383C50.4985 57.2898 43.4657 29.1235 43.4657 29.1235C43.4657 29.1235 36.0565 57.2898 35.9167 57.8276H20.0983C19.9585 57.2791 8.69959 12.2172 8.69959 12.2172H2.17221V2.17243H31.6368V12.2065H24.2922L31.54 41.5236C31.54 41.5236 41.971 2.71016 42.1215 2.17243H52.3158C52.4556 2.72092 62.0908 41.5236 62.0908 41.5236L69.9623 12.2172H62.908V2.17243H84.9312V12.2065V12.2172Z" fill="#E8D3A2"/>
<path d="M62.9101 2.17255V12.2066H69.9644L62.0929 41.5129C62.0929 41.5129 52.447 2.72103 52.3179 2.17255H42.1236C41.9838 2.71028 31.5529 41.5237 31.5529 41.5237L24.305 12.2066H31.6497V2.17255H2.17432V12.2066H8.7017C8.7017 12.2066 19.9714 57.2684 20.1004 57.8169H35.9188C36.0586 57.2792 43.4678 29.1129 43.4678 29.1129C43.4678 29.1129 50.5113 57.2684 50.6404 57.8169H66.4588C66.5986 57.2792 78.4597 12.2066 78.4597 12.2066H84.9333V2.17255H62.9101Z" fill="#33006F"/>
</svg>
